<svg id="Layer_3" data-name="Layer 3" xmlns="http://www.w3.org/2000/svg" viewBox="0 0 800 800"><path d="M401.08,454.54c3.62,1.81,4.89,5.37,6.52,8.73.43-5.74-3.21-9.89-5.72-14.62,2.81-.7,2.44,2,3.52,2.93a33.18,33.18,0,0,1,3.44,4.36c-.13-3.13-1.65-5.31-1.85-7.87-.17-2.15-3.06-3.76-2.13-6.89l5.32,6.41c-.87-2.76-.54-5.8-2.67-8-.46-.47-.25-1.59-.35-2.42,2.62,1.7,3.82,4.37,5.39,6.95,1.37,2.24,1.17,4.95,3.12,7.12.75-3.88-1.48-7-2-10.41s-2.48-6.3-3.61-9.59c1.62,1.56,3.62,2.73,4.49,5,.16.41.86.62,1.35.88l-.13.12.6.71.27-.27a5.13,5.13,0,0,0-.74-.56c-.07-3.29-2-5.84-3.75-8.37-1.44-2-3.25-3.85-4.83-5.81-.19-.24,0-.76,0-1.23,3.52,1.68,5.69,4.33,7.48,7.69,1.64,3.08,3.57,6,4.75,9.33a7,7,0,0,0,2-5.88l-1.47,2.54c-.57-1.62-.71-2.68-1.27-3.44-.68-.92-1.74-1.58-1.11-2.87-1.73-2-4-3.38-4.45-6.1a4.28,4.28,0,0,1-2.6-4,2.21,2.21,0,0,1,2.51,1.23c2.34,3.69,5.52,6.67,8.3,10,.13.15.54.05,1.2.1a6.62,6.62,0,0,0-.3-1.74,76.71,76.71,0,0,0-12.08-16.48h-2.87c-.29,2.18-.4,4.45-2.42,6-.26-.54-.52-1.1-.8-1.66l-3.42,3.18c-1-3,.86-5.17.8-7.5l-1.07-.05c-.44,1.78-.9,3.61-1.48,5.95l-2.46,1.89-1.35-1v-9.33c2.24.76,1.25,2.67,1.82,4.47l1.64-2.92c-.3-2.32-.67-5.22-1.08-8.39l2.41-.18c.52,2.15,1,4.11,1.47,6.08h.33l.22-4.11c-.74-1.65-1.31-2.94-1.88-4.23,1.91,1.12,3.54,2.3,3.6,4.63,0,.38.54.75.87,1.07l-.13.13.61.71.27-.28a5.23,5.23,0,0,0-.75-.56c0-.78,0-1.6,0-2.59l2.36,1.29c.16-1.81.3-3.28.46-5a15.57,15.57,0,0,1,5.89,5.23c2.62,3.46,4.58,7.4,7.68,10.7l1.37-.45c-1.82-2.89-3.52-5.63-5.27-8.33-2-3-4.87-5.35-6.86-8.41-.41-.63-1.8-.57-.8-2.06,2.32,1,3.6,3.13,5.35,4.71s3.35,3.32,5.27,4.78a37,37,0,0,0-8.5-13.38c0-.45,0-1,0-1.6,0-.11.2-.2.3-.31.43.24.87.5,1.31.73s1,.48,1.55.77c.07-.25.37-.68.27-1-.47-1.39-1-2.75-1.67-4.35,1.21-1,.79-2.61.83-4.13,1.3-.07.74-1.07.87-1.73a4,4,0,0,0,1.72-3.47l.45.43,1.32-2-1.66-.11c-.05.69-.09,1.2-.11,1.72-1.91.48-1.79,2-1.72,3.47-1.3.07-.74,1.08-.87,1.73l-2.58,1.22c.19-5.25,3.35-8.36,6.34-12.53l.85,3.36c.29.05.67.23.81.12,2.18-1.63,5-2.07,7-4.09.85-.86,2.59.45,3.48-1,4.26-.49,8.35-.38,11.76,2.78.69.63,1.72.92,2.36,1.58.82.85,2.19,1.42,2.08,3.36l-7.1-4.15c-3.93-1-7.45.65-11.11.68a4,4,0,0,0-1.8.83c-2.31,1.43-4.66,2.8-6.86,4.37a30.5,30.5,0,0,0-3.38,3.29V385l3.78-1.9c1.27-3.41,5.26-3.62,7.82-5.81h7.48c2.2,1.48,4.35,2.73,6.27,4.26s3.49,3.25,5.35,4.73.79,4.29,2.78,6.19c1.54,1.47,2.43,3.92,3.32,5.93a53.2,53.2,0,0,0,3.84,7.52c.9,1.4.85,1.42,3.09,1.74l3,3.2a27.76,27.76,0,0,1,7.45,2.78,43.84,43.84,0,0,1,7.78,5.28c3.22-.31,4.78,3.05,7.67,3.48,2.85,2.74,6.74,3.26,10.16,4.8a3.7,3.7,0,0,0,1.13.39c3.78.37,7.56.71,11,1,2.07,1.17,3.88,2.39,5.85,3.28,2.92,1.32,5.84,2.68,8.74,4a87.85,87.85,0,0,1,7.86,4.11,10.52,10.52,0,0,0,3.09.75c1.76-4.45,1.84-9,3.12-13.31a28.94,28.94,0,0,0,.78-8.77,7.1,7.1,0,0,0-.45-2.41c-.79-2.14.14-4.84-2.13-6.43v-4.42c-1.38-2.86-2.72-5-3.41-7.24-1.29-4.27-4.05-7.62-6.42-11.22-1.28-1.95-2.69-3.82-4.06-5.7-.33-.46-.7-1.12-1.15-1.22-2-.44-3-2.13-4.18-3.46a24.39,24.39,0,0,0-6.06-5.17,39.33,39.33,0,0,1-4.57-3.63c-2.86-2.34-6.32-3-9.82-3.52a24.52,24.52,0,0,0-4,0c-2.33.81-4.61.91-5.46,2.07-1.47,2-3.64,1.14-5.32,2.1-1.42.81-3.67.17-5.55.17H467c.35,1.55.66,2.95,1,4.34l-4.63-4,1.85-.49c.09-1.17.2-2.53.29-3.76l5.46-1.63,10.61,1.48c1.8-1.21,3-2.31,4.33-2.81,1.75-.64,2.69-2,3.75-3.27.66-.79.76-2,1.4-2.86a46.61,46.61,0,0,1,3.59-3.66,20,20,0,0,1,8.36,4.41c2.73,2.59,5.42,5.22,8,8,1.89,2.06,4.4,2.67,6.86,3.36,1.84.52,3.84.46,5.69,1a9.52,9.52,0,0,1,5.21,4,34,34,0,0,0,10.66,9.88c1.29.76,2.46,1.71,3.66,2.55,1.69-3.78,3-7.67,5.06-11.37,1.73-3.19,3.37-6.63,3.41-10.79A61.45,61.45,0,0,1,553,348a21,21,0,0,1,1.71-3.69c-.29-1.27-.28-2.79-1-3.87-.78-1.24-1-2-.19-3.36,1.12-1.87-.64-3.63-.88-5.51a13.39,13.39,0,0,0-4.12-7.83,5,5,0,0,1-1.5-3.22c0-2.93-1.75-5.09-2.79-7.56a38.8,38.8,0,0,1-2-4.83,16.9,16.9,0,0,0-5.43-8.15c-.44-.38-.82-.82-1.23-1.23-.18-1.2,0-2.33-.77-3.6-.94-1.54-.78-3.7-1.42-5.47a16.66,16.66,0,0,0-6.51-7.91,36.51,36.51,0,0,1-3.67-3.48c-1.3-.31-2.9.53-4.59,1.69-1.52,1.05-2.74,2.73-4.94,2.78-.47,0-.8,1.27-1.39,1.61-2.55,1.5-5.18,2.87-7.31,4-2.45-.19-4.54-.65-6.56-.44a18.77,18.77,0,0,0-6.62,1.75,31.72,31.72,0,0,0-6.67,4.82c-5.44,5-9.32,8-15.95,9.67-6.35,1.63-11.94,4.74-17.73,7.5a10,10,0,0,1-4.65,1.42,9.71,9.71,0,0,0-3,.93c-.51,5.41-5.92,7.3-8.42,11.76,4.23.49,7-2.35,10.6-3,.1.08.41.37.9.81,2-1.31,4.25-2.45,7-1.8-.18-2.52,1.9-3.07,3.2-3.45,2.41-.71,4.82-1.13,6.49-3.23,4.15-1,6.93-4.26,10.29-6.52a60,60,0,0,0,10.19-7.91,20.8,20.8,0,0,0,1.72-2.5l1.53.55c-1.51,2-2.82,3.76-4.17,5.49-.84,1.09-1.8,2-2.57,3.25a13.4,13.4,0,0,1-4.45,3.72c-4.62,2.77-9.35,5.35-14,8a18.2,18.2,0,0,0-1.73,1.36l10.85,2c1.73-1.08,2.91-2.23,4.3-2.6a23.08,23.08,0,0,0,10.13-6,38.68,38.68,0,0,1,7.33-5.28c3.94-2.31,8-4.35,12.09-6.42a42.16,42.16,0,0,0,13.13-10.76,10.41,10.41,0,0,1-2.68,6.3c-2.29,2.5-4.52,5.23-7.62,6.7-2,1-2.81,3.08-4.74,4.07a14.85,14.85,0,0,1-4,1.84c-3.13.6-5.6,2.68-8.15,4.37a115,115,0,0,0-9.15,7.25,9.14,9.14,0,0,0-1.28,1.79c.66.2,1.08.49,1.41.41,4-1.07,7.9-1.58,11.88,0,.44.17,1.08-.11,1.61-.23,1.06-.26,2.11-.55,3.53-.91l.18-1.95c1.26-.94,2.11-2.66,4-3.19,2.09-.57,4.08-1.56,6.32-1.5,2.53.08,4.84-1.23,7.46-.93a67.8,67.8,0,0,0,7.67.06l7.64,4.46-1.25,1.37c-5.85-1.46-11.57-3.51-17.91-1.77l-.83-.75c-2,1.64-5.16.6-7.13,3.35a22.74,22.74,0,0,1,3.49,1.19c2,1.06,4.21,1.85,5.9,3.63,1.83,1.93,4.26,3.31,6,5.33,1.23,1.47,2.76,2.5,4,3.86a10.72,10.72,0,0,0,4.46,2.86c.92.32,1.54,1.58,2.2,2.48,2,2.65,3.87,5.34,5.82,8,.25.34.79.57.88.93.87,3.39,3.64,6.05,3.73,9.74,0,1.38,1.33,2.51.85,4-.37,1.14-.85,2.25-1.36,3.58-2.52-3.39-2.33-7.73-4.64-11.21-2.19-3.29-2.46-7.76-5.8-10.73-1.16,4.38.35,8.61.73,13.59-1.05-.69-1.77-.91-1.89-1.3-.5-1.68-.62-3.51-1.28-5.11s-1-3.08-1.52-4.59c-.56-1.69-2.14-3.1-2.7-4.94-.85-2.81-3-4.77-4.74-7a60.83,60.83,0,0,0,3.22,16.82c-.29.3-.66.72-1.07,1.16-.2-.08-.51-.1-.58-.24-.91-1.79-2.31-3.54-2.52-5.42-.28-2.38-1.23-4.44-1.88-6.64-1.13-3.86-2.29-7.72-3.34-11.24l-7.94-4.93c-1.39,0-3.27,0-5.14,0s-3.52.44-5.4-.93c.37,2.48,2.06,3.63,3.43,4.55a29,29,0,0,1,9.41,10.4c1.68.65.82,2.53,1.76,3.64.51.6.24,1.87.35,3.2-1.7-.95-3.38-1.21-3.86-3.3-.23-1-1.16-1.83-1.78-2.73-2.47-3.57-2.47-3.57-6.64-5.77a8.78,8.78,0,0,1-1.77-.94c-2.92-2.55-6.59-2.94-10.14-3.86-2.65-.68-5.37-.72-8-1.48-1.9-.54-2.63-2.56-4.69-2.62-6.25.66-12.73.68-18.94,3.47,3.32,2.21,7.14,3,9.46,6a21.08,21.08,0,0,1,2.87,4,29.12,29.12,0,0,0,7.92,11c-.1,1.73-1.61,2.19-2.36,3.18-4.67-.68-6.12-4-7.23-7.64-.39-1.26-.73-2.54-1.12-3.94l-1.69,1.69c.61,3.39,1.27,7,2,11l-4.81-2.23c.94,2,1.62,3.41,2.58,5.42-1.11-.29-1.87-.26-2.21-.62a11.54,11.54,0,0,1-2.43-3.31,11.15,11.15,0,0,0-5.35-5.7,8,8,0,0,0-1.92-1.37c-.46.16-.29.49-.16.47a6.77,6.77,0,0,0,1.21-.38c-.52-.15-1-.29-1.05-.09a8,8,0,0,1,1.92,1.37c.06,1.09-.22,2.16.86,3.09,1.68,1.45,2,3.41,1.53,5.93-.71-.44-1.35-.6-1.48-.95-1.7-4.58-5.52-6.91-9.41-9.28-1.27-.78-2.45-.3-3.72-.58-1.06-.86-1.06-.86-2.5-.06,1,0,1.77,0,2.5.06.48.6.77,1.45,1.31,1.66a24.41,24.41,0,0,1,9.19,6.67c0,.58-.1,1.36-.2,2.78a73.89,73.89,0,0,0-8-5.9c-2.68-1.72-5.82-2-8.75-3.6l-1.38,1.64c2.95.72,4.82,2.9,7,4.61-1.88.31-3.41-.84-5.13-1.23-2.39-.54-4.68-1.66-7.23-1.36-.22,0-.42.29-.6.42l5.71,1.67c-.84,1-1.35,1.67-1.77,2.19a35.75,35.75,0,0,0-5.87-.75,35.63,35.63,0,0,0-5.8,1.16v2.81l-5.14,5.14L412,363.3a5.05,5.05,0,0,0-3.17,2.93,19.51,19.51,0,0,1-5.14,6.73c.26-1.32.53-2.64.95-4.7-1.29,1.27-2.24,1.83-2.77,3.22s-1.79,2.42-2.48,3.74c-.62,1.17-.82,2.55-1.34,3.78a15.2,15.2,0,0,1-2,3.39c.13-4.77.81-9.34,4-13.25,1.28-1.57,2.2-3.43,3.41-5.07,1.88-2.56,3.88-5,5.79-7.58a1.65,1.65,0,0,0,0-1.75c-2.76,3.05-5.48,6.14-8.3,9.14s-3.86,6.87-6.13,10c-2.51,3.44-1.93,7.92-4.85,11.2-.5-1.75-.08-3.56-.23-4.91,1-2.52,1.86-4.7,3.07-7.75-2.75,2.07-3.77,3.85-4,6.37-.26,2.37-1.22,4.67-2.08,7.75l-.61-2c-1.37-3.35,0-6.84,1.18-10.61-1.5,1.19-1.49,1.19-2.75,5.52-.56,1.92-1.15,3.83-1.75,5.82l-1.72-1a12.71,12.71,0,0,1,.82-4.82c1.27-3.92,2.49-7.85,3.79-11.74l4.94-2.54v2.61l-.87.87c-1.92.48-1.81,2-1.69,3.51L388,372l-.7.6.27.28a5.85,5.85,0,0,0,.56-.75,4.17,4.17,0,0,0,1.69-3.51l.87-.87,5.25-7.46,3.28-1c0,.29.27.9.12,1a2.15,2.15,0,0,0-.8,2.26l-.12-.13-.71.61.27.27a4.07,4.07,0,0,0,.56-.75c1.42-1.66,2.87-3.28,4.34-4.9V356c1.89-.6,2.47-3.18,5.11-2.93-.15-2.91.23-5.63,2.51-7.27-.27-1.58-1.05-3.14-.62-4.2,1.54-3.73,1.25-7.78,2.43-11.57.55-1.79.09-3.77.79-5.74.53-1.5,1-3,1.65-4.53.83-1.81,1.62-3.66,2.33-5.54.93-2.49,2.76-4.63,4.15-6.95a4.07,4.07,0,0,0,.55-2.47c1.35-1.28,2.67-2.62,4.08-3.85s3.46-2.19,4.41-3.76,2.8-2,3.79-3.53a39.93,39.93,0,0,1,3.66-4.56c1.25-1.4,2.64-2.67,3.82-3.86.4-1,.51-2.13,1.1-2.76a17.93,17.93,0,0,0,4.46-8.15c0-.13-.05-.32,0-.43a35.43,35.43,0,0,0,3-7.44,17.23,17.23,0,0,1,4.45-7.25c.52-.5,1-1,1.18-1.19a58.55,58.55,0,0,0,18.13-8.8c1.31-.65,2.85-1.06,3.88-2a37.14,37.14,0,0,1,6-4.45c1.16-.71,1.6-2.13,3-2.94,2.51-1.44,4.62-3.67,6.74-5.72a12.61,12.61,0,0,0,3-3.95,3.28,3.28,0,0,1,1.77-2.09c.24-.11.71-.14.73-.27.67-4.08,4.65-5.73,6.6-8.95,2.28-3.78,5.55-7,8-10.65,1-1.74,2.3-3.38,2.88-5.24.66-2.1,1.8-3.9,2.62-5.87s1.88-3.49,2-5.75c.06-2,1.54-3.95,2.15-6,.56-1.88.8-3.85,1.34-6.55-2.82,3-5,5.44-8,6.69-3.61,1.5-6.87,3.62-10.38,5.29A129.84,129.84,0,0,1,493,195.84c-2,.71-4,1.54-5.13,3.2-2.33,3.5-5.63,6-8.33,9.12a28,28,0,0,0-2.35,3.62c1,.9,1.1-.2,1.53-.23,1-.06,2,0,3,0,6.79-.1,13.08-2.19,19.23-4.86,3.19-1.38,6.47-2.54,9.69-3.83a11.62,11.62,0,0,0,1.48-.93c0,2-1.26,2.78-2.32,3.52a41.47,41.47,0,0,1-10.63,5.73c-2,.65-3.75,2.07-5.71,3a37.41,37.41,0,0,1-10.61,2.72,23.15,23.15,0,0,0-7.12,1.59,11.94,11.94,0,0,1-6.53.87c-1.2,2.75-3.69,4.31-5.56,6.42a22.72,22.72,0,0,1-6.2,4.91c-.33-1.4.65-2.45,1.29-3.35,1.64-2.28,3.61-4.32,5.67-6.71-.95-3.9,1.58-7.46,1.94-11.43,1.52-1.54.09-3.56.88-5.27a28.3,28.3,0,0,0,1.6-5c.79-3.07.45-6.16.87-9.19a27.73,27.73,0,0,1,1.55-5.84c1-2.62,2.3-5.1,2.86-8a8.89,8.89,0,0,1,4.14-6.1c-.91,3.51-1.68,6.73-2.6,9.91a32.25,32.25,0,0,1-2.05,5.65c-1.06,2.1-.2,4.22-.54,6.3-.24,1.48-.66,2.93-.83,4.42s.32,2.85-.9,4v10.24l1.33,1.24c1.88-2.47,3.71-4.89,5.58-7.3s3.58-4.55,5.33-6.77c-.49-3.23.65-6.38-.87-9.4-.3-.59.49-1.74.79-2.63.71-2.16,1.43-4.31,2.47-7.41-.57-3.27,2.79-6.57,3.12-10.67,2-2.33,3.59-5.05,5.59-7.41l.87.56c-.83,2-1.58,4-2.53,5.9-1.12,2.26-2.43,4.42-1.57,6.85-1.07,1.93-2.15,3.51-1.91,5.62.15,1.36-.44,2.7-.67,4-.38,2.16-1.52,4.23-1.1,6.57.12.67-.52,1.48-1,2.64l1.77.82,3.65-4.4c1.43-1.72,3.23-3.26,4.18-5.22s3.15-2.17,3.94-4.37c.62-1.71,3-2.79,4.84-4.36,0-.54-.29-1.54,0-2.2,1.89-3.6,2.59-7.61,4.09-11.33.15-.37.59-.62.9-.93.19-3.44,1-5.76,2.71-7.72.47,5.16-2.83,9.66-1.44,14.73.76.27.93-.67,1.38-1a21.26,21.26,0,0,0,1.86-1.82l1.53-1.53a22.82,22.82,0,0,0,1.82-1.86c.42-.51.58-1.23,1-1.74,1.79-2.16,3.66-4.26,5.44-6.43.6-.73,1-1.65,1.58-2.36.27-.31.9-.31,2-.63-2.44,6-6.45,10.3-9.51,15.82,4.15-1.29,6.52-4.2,9.52-6.35l.68,1.52c-4,3.68-7.88,7.47-12.79,10l-.85-.76a106.62,106.62,0,0,0-9.63,11.16c-2.16,2.71-4.52,5.48-7.77,7.23-.91.48-2.36,1.27-2,3.2,2.41-.8,4.81-1.44,7.07-2.39s4.44-2.45,6.84-3.41A40.31,40.31,0,0,0,516,182c2.19-1.38,4.32-2.85,6.68-4.41l1.23.83c.11-.12.37-.28.42-.48.48-1.84,1-3.67,1.35-5.52.65-3,3-5.14,4.37-7.73.54-1,.91-2,1.39-2.89,1-1.76.24-4,1.67-5.37,1.7-1.58-.24-4,1.64-5.45.13-.1.12-.61,0-.83-1.47-2.67-.79-5.29-.06-8,.21-.75-.45-1.74-.75-2.76-1.38.38-2.4,1-3.39.9-3-.18-5.26,1.17-7.59,2.71-2,1.35-4.06,2.84-6.92,2.53-2,3.32-5.95,3.41-9,5.18a30.11,30.11,0,0,1-5.08,1.82v-4.07c4.45-2.11,9.29-4.14,13.54-7.24,1.87-1.36,4.28-1.47,6.21-2.89s4.09-1.92,6.17-2.84a57.34,57.34,0,0,1,6.26-2.7c1.43-.44,3.07-.23,4.94-.33,0,5.05,0,9.93,0,14.8,0,1.81-1.25,3.34-.93,5.3.29,1.75-.34,3.54-.62,5.3a15.9,15.9,0,0,1-2.21,5.62c-1.71,2.91-2.56,6.2-4.79,8.93a10.44,10.44,0,0,0-1.81,8.25c-1.37,1.25-1.61,2.81-1.85,4.52A34.74,34.74,0,0,1,523.68,196a11.47,11.47,0,0,0-1.08,5.5,73.12,73.12,0,0,0-7.05,12c-1.18,2.44-3.77,4.2-5,6.63a14.41,14.41,0,0,1-4.34,5.52c-3.84,2.7-6.23,6.62-9,10.17-1.69,2.15-3.11,4.52-4.92,6.65a42.73,42.73,0,0,1-3.75,3.52,47.91,47.91,0,0,1-4.23,3.39c-1.32,1-2.7,1.9-4.18,2.92h-1.35l-1.57-2.38c-1,2.8-2.42,4.06-4.82,4.59-1.33.3-2.29,2-3.63,2.55a46.81,46.81,0,0,0-11.13,6.8l-.23,2L453.18,268c.39,3.36-1.43,5.88-2.86,8.71-1.17,2.32-3.53,4.3-3.26,7.22-1.42,2-3.46,3.29-4.71,5.49a12.21,12.21,0,0,1-5.17,5.12c-2.54,1.1-2.61,4-4.78,5s-3.71,2.79-5.64,4.11-3,3.62-4.77,5.87V312a4.25,4.25,0,0,0,.68-.12c3.64-1.5,7.26-3,11.29-3.16,1.07,0,2.39.61,3-.8.55.3,1,.74,1.49.79,2.35.23,4.69-.2,7.07.75,1.07.43,2.82-.59,4.16-1.19,3.8-1.69,7.74-3,11.2-5.51a11.14,11.14,0,0,1,6.16-1.89,40,40,0,0,0,5.72-1,104.48,104.48,0,0,0,12.06-11.84l8.87-2.92a6.22,6.22,0,0,1,2.31-.66c5.6.61,10.13-1.9,14.48-4.89a22.8,22.8,0,0,0,4.5-3.72c.92-1.08,2-.73,3-1.19s1.86-1.06,3.06-1.76a9.09,9.09,0,0,0,6.05,3c1.84.25,3.59,1.84,5.17,3.09a21,21,0,0,1,4.26,4.31,9.62,9.62,0,0,1,1.61,4.5c.27,3.06,2.46,5.4,2.83,8.41.09.68,1.14,1.25,1.77,1.85,3,2.93,5.7,6.07,5.88,10.58,1.9,1.68,1.53,4.29,2.59,6.31s1.82,3.89,2.9,5.73a18.7,18.7,0,0,1,2.48,8.15c.27,2.82,1.89,5.52,3.4,9.6-.23,2-.63,5.51-1,8.82-2.34,3.26-2.09,6.57-.92,10.44-.06.08-.63.46-.7.91-.38,2.47-.52,5-1,7.43a43.43,43.43,0,0,1-1.72,6.22c-.62,1.76-1.55,3.41-2.23,5.15s-2.36,3-2.52,5a2.89,2.89,0,0,1-.9,1.76c-1.13,1-2.51,1.76-3.57,2.82a36.63,36.63,0,0,0-2.93,3.86c-1.92-2.68-4.63-3.92-6.95-6.61-2.18-.45-4.33-2.47-5.79-4.75-1.81-2.8-3.6-5-7-6.07-2.55-.8-7.29-2.83-9.67-3,.66,1.75,2.58,2,3.48,3.14,1.37,1.72,3.83,2,4.77,4.44.76,2,2.83,3.42,4.28,5.11a78.89,78.89,0,0,1,7.48,9.56c1.74,2.84,3.72,5.63,4.65,8.9.74,2.59.83,5.32,2.08,7.83a13.85,13.85,0,0,1,.91,4.81c.16,1.65-.22,3.38.9,4.85-1.42,2.91-.52,6.09-1.06,9.11-.09.51-.7,1-.64,1.44.54,4-.79,7.71-1.82,11.43-.68,2.43-1.81,4.74-2.79,7.23H533c-7.52-3.53-13.38-9.47-20.64-13.76a10.88,10.88,0,0,1-4.63-.78c-1.42-.69-3.42.59-4.81-1-2.43.46-4.67-.8-7-.82-4.1,0-7.57-1.34-10-4.09l-5.12-1.22-2.93-3.08a10.51,10.51,0,0,1-6.21-3.17c-2.24-2.08-4.91-2.81-7.79-3.26-1.74-.26-3.46-.71-5.32-1.1-.92-.93-1.78-2.45-3-2.85-1.62-.52-1.65-2-2.62-2.88a18.56,18.56,0,0,1-2.5-3.28A14.52,14.52,0,0,1,448.7,403a37.5,37.5,0,0,0-3.88-8.35c-1.38-2.22-3.7-3.87-5-6.12-1.41-2.42-3.63-3.95-5.19-6l-8.28-1.08-4.26,3a46.91,46.91,0,0,1,.67,4.7,21.77,21.77,0,0,0,2.61,9.35,9.32,9.32,0,0,0,.94,1.77c2,2.31,4.08,4.57,6.36,7.11-3,.84-4.24-1.61-6.07-2.51-1.22-.6-1.68-2.35-3.77-2.56a21.18,21.18,0,0,0,.86,3.43,6.56,6.56,0,0,1,.68,4.73c4.25,3.61,8.4,7,13.35,9.5l-1.24,1.33c-3.5-1-6.23-4-10.48-4a9.38,9.38,0,0,0,4.3,5.07c1.92,1.21,3.11,3.56,5.89,3.67.87,0,1.68,1.65,2.7,2.74-2.44.37-7.41-1.92-10.68-4.65-1.44.32-2.13,1.2-1.89,3.17,3.14,2.63,5.56,6.61,10.15,8.53l1,1.95c-.28.07-.71.34-1.05.25a12.74,12.74,0,0,1-5.72-2.94c-1.34-1.31-2.66-2.65-4.21-4.21l-1.32,2.9a51.56,51.56,0,0,0,11.49,10c-1.93,1.41-3.51-1.63-5.12-.42l-5.43-3.95-1.67,3.06c2.84,4.12,7.51,6,11.33,8.92-2,.53-2.44.51-5.79-1.18-1.93-1-3.72-2.22-5.7-3.42.05,0-.2,0-.21,0-.19.66-.34,1.33-.37,1.45.45,2.48,2.77,2.38,3.7,4.14.7,1.34,2.87,1.87,4.33,2.86s2.85,2.12,4.14,3.09c0,.89-.07,1.45-.1,2.08a2.3,2.3,0,0,1-.7-.13,23.93,23.93,0,0,0-4.69-2.28l-8.29-7L420.68,454c2,1.89,4,3.39,5.43,5.32a23.32,23.32,0,0,0,8.43,6.71c.23-.93.45-1.78.68-2.69h1.31v6.77l-1.39.09c-2.44-1.55-4.43-3-6.61-4.15s-2.85-3.88-5.3-4.81c-.88,2.31-.09,4.06.32,5.95s.1,4,.1,6.27c2,2.33,3.87,4.93,6.11,7.21,2.09,2.12,4.52,3.89,7,6l-1,1.52c-.27,0-.53,0-.67-.06-1.22-.9-2.42-1.84-3.64-2.75-1-.73-2-1.43-3-2.15-1.18-.86-2.34-1.74-3.77-2.8v4.11a42.7,42.7,0,0,0,12.26,10.17L435.55,496l-10.39-5.35c.86,4,3.3,6.08,5.7,7.75,1.9,1.33,3.28,3,5.25,4.51l-1.34,1.78a3,3,0,0,1-.63-.19c-2.46-1.39-4.42-3.63-7.46-4-1.83-.23-2.15-2.45-4-3.77.53,3.26,2.47,5.08,3.91,7.08s3.82,3.39,5.15,5.76c-2.38,1.82-2.76-3.05-4.86-.87l-5.18-6.09c-1.26,2.44-.17,4,1,5.15,3.05,3,5.57,6.54,9.66,8.62-.05.81-.09,1.59-.15,2.77-4.45-2.41-7.77-5.7-11.84-8.62.42,2.57,2.05,3.67,3.14,5.16,1.22,1.67,2.94,2.72,4.31,4.19a29.27,29.27,0,0,1,3.82,4.51c-2.68-.12-4.39-1.85-6.37-3.32l-1.45,2.58c.83,2.45,4.57,2.13,6.41,5.08l-2.38.85-1.67-2.16-2.66.12c1.48,2.18,3.88,3.22,4.69,6.13L422,530.51c.15,1,.09,2,.33,2.06,2.3.79,3.34,2.84,5.2,4.42-2.22,1.76-3.79.34-4.87-.67-1.77-1.64-3.95-2.92-5.24-5.08a7.86,7.86,0,0,0-1-1.16h-2c-.06.23-.22.49-.15.63a29.43,29.43,0,0,0,9.72,10.69,4.17,4.17,0,0,0,2.28.84c.35,0,.72.38,1,.65a15.26,15.26,0,0,1,.95,1.24l-3,2.17c.32.8.66,1.63,1.19,2.93-3.67-.27-5.84-2.45-8.18-4.13s-4.73-3.83-7.29-5.54c.87,3.61,3.74,5.69,6.23,7.88s5.26,4.33,8.79,5.1v3.27c-2.28,1.48-2.83-1.6-4.55-1.49-.36,2.12-.27,2.22,2.61,2.7l3.05,3.05c-.2.79-.46,1.79-.72,2.8a4.3,4.3,0,0,1-1-.17c-1.5-.91-3-1.88-4.51-2.73a13.15,13.15,0,0,0-2.59-.67l-2.06-2.38-3,.18c3.76,2.95,6.91,5.46,10.11,7.89a5.54,5.54,0,0,0,1.9.64c1.26.37,1.88,1.17,1.69,3l-1.56,1.69v3.78h-3.19l-1.82-2.31c-.2,1.39-.29,2-.4,2.77l5.11,3.34v2.92l-8.31-5.34c-.06.34-.16,1-.25,1.47,2.37,3.62,5.7,6.16,8.83,9.08l-1.29,1L417,583c-.73,1.62.4,2,1.37,2.61,2.38,1.47,2.36,1.5,2.91,4.06l3.42,1.09a40.42,40.42,0,0,0-1,5.79,9.49,9.49,0,0,1-1.37,5.53,6.67,6.67,0,0,0-1.27.08c-.75-2.74-.75-2.74-3.7-2.14,1.32.79,2.46,1.48,3.7,2.14,0,.93,0,2,0,3l-1.23,1.22-6.17-5.59-1.47,2.88c1.26,2.8,4.66,2.83,5.52,5.88l-2.1.57-2.87-2.86-2.56.3c1.19,1.69,1.88,3.37,3.13,4.26a6.29,6.29,0,0,1,2.92,4c.38,1.63,1.88,3,2.62,4.54,1.25,2.68,3.74,4.21,5.31,6.14,1.61,4.24.56,8.75,2.9,12.59.35.58-.3,1.77-.47,2.63A5.39,5.39,0,0,1,422,641a68.57,68.57,0,0,1-14.21-11.74,31.16,31.16,0,0,0-3.55-2.82c-2.17,1.56-1.7,3.31-.51,5.11-1.36,2.52-1,5.15-.58,7.78a16.45,16.45,0,0,1,.54,2.8c0,4-.1,8.06,1.7,11.89.43.93.06,2.24.06,3.42l-2.88,1.79c-1-.39-2.56-.47-3.1-1.23-1.25-1.77-3-3.12-3.86-5.25-.81-2-3-3.18-3.25-5.61-.07-.71-1-1.33-1.39-1.86-.27-1.74-.59-3.38-.77-5-.19-1.82.37-4.1-.53-5.37-1.09-1.52.19-3.57-1.58-4.6.31-2.22-.65-4.55.66-6.67.08-.11.22-.25.2-.34-.27-1.33-.93-2.71-.75-4s1.47-2,.32-3.4c-.28-.33.44-1.36.39-2s-.67-1.18-.79-1.82c-.32-1.78-1.61-2.43-3.17-3.2-.75,1.62.47,3.87-1.93,4.58-2.67-.06-1.23-3-2.63-4,1.86-1.14-.21-2.14-.13-3.23a7.73,7.73,0,0,0-.57-3.86c-.09.78-.2,1.57-.27,2.36-.1,1.12-.09,2.26-.29,3.36a21.32,21.32,0,0,1-.94,2.79c-1.69.05-2.18-1.49-2.82-2,.27-3.55.51-6.72.79-10.44-2.46,2.24-1.86,4.61-2.31,6.45-.33.65-.65,1.31-1.17,2.34-.82-1.27-1.3-2-1.79-2.74,1.74-3.12,1.77-6.49,1-10a18.78,18.78,0,0,0-1.12,4.36,10.49,10.49,0,0,1-1.53,4.58l-2.91-2.39c.24-.28.53-.46.58-.69q1.49-6.54,2.89-13.11c0-.17-.3-.42-.6-.82l-1.64,1c-.58,3.16-1.14,6.22-1.74,9.46.1.14.39.59.88,1.32l-1.82,1.23L363.57,598c1.66-1.27.35-3.63,1.9-5.14a1.32,1.32,0,0,0,0-1.25c-1.5-1.91-.49-4.13-1-6.45l1.16-.56c.87-2.69,1.49-4.6,2.17-6.68l-1.06-2.06c-2.09,3.53-4.45,6.76-3.8,10.91l-2.12,3.33-1.18-2.26c1-4,1.92-7.66,3.07-12.27l1.42-2.76-2.91.2c-.23-.37-.73-1.18-1.28-2,1.6-2,3-3.69,4.38-5.43a19.41,19.41,0,0,0,3.74-9.27c.22-1.74,2-3.52.12-5.4-.22-.22.29-1.25.55-1.86a43.74,43.74,0,0,1,2.93-6.58c1.28-2,.67-3.58-.4-5.33h-2c-.72,2.67-.58,5.52-2.9,8.56,0-2.95-.11-5.07,0-7.18.13-1.87.53-3.72.87-5.89-2.27,2.15-2.82,4.91-4.37,8.15-.54-1.41-.94-1.9-.84-2.25a33.62,33.62,0,0,0,1-5.28c.16-1.32,1.57-2.43,1.64-4.06a28,28,0,0,1,.74-4c-2.92.92-3.3,4.24-5.68,5.81-1-2.31.63-4.15,1.06-6.17.26-1.19,1.56-2,1.19-3.44l.12.13.71-.6-.27-.27a5.13,5.13,0,0,0-.56.74c-1.55-.47-2,1.22-3.09,1.69l-.92-.93c.65-3.79,2.7-7.1,3.56-10.87.51-2.25-.08-4.74,1.35-6.78.07-.09.08-.35,0-.41-2-1.8-.5-3.82.13-5.31,1.37-3.23.94-6.52.58-9.63s-1.58-6-1.61-9.25c0-.61-.54-1.21-.85-1.85,1.51-1.84.7-3.94.93-6.05-2.17.52-1.5,3.68-4.37,3.38.17-.91.05-2,.55-2.58,2.28-2.48,2.29-5.75,3.92-9.05-2.92,1.1-3.94,3.36-6.07,4.86.28-4.47,2.71-7.74,5.24-11.65-1,.41-1.69.49-2.05.89-.72.8-1.2,1.81-1.89,2.66s-1.46,1.4-2.11,2.16-1.23,1.66-2.23,3l-.62-2.42,10.47-13.38-1.29-1.39a49.75,49.75,0,0,1-5.09,5c-1.77,1.32-2.09,4-4.52,4.6a30.8,30.8,0,0,1,5.68-8.14c2.47-2.35,3.91-5.38,7.16-8.06l-2.94-.35c-1.61.69-2,3-4.21,2.65l3.46-5.48c.31-2.38.71-5.56,1-8.12-1.8-2.82-3.27-5.1-4.59-7.16.42-1.63.76-2.89,1.1-4.2-2.63-.76-1.58,2.26-3.19,2.33l-1.21-1.15c2.45-2.89,4.11-6.05,3.17-10.24-3,.83-3,4.21-5.49,5.87-.15-1.2-.57-2.11-.28-2.66,1.2-2.27,2.7-4.37,3.9-6.64.81-1.51,2-3.09.92-5-3.5,2.41-4.7,6.6-7.61,10.31a20.27,20.27,0,0,0-.77-2c-.27-.47-.62-.89-1.16-1.63,1.31-1.59,2.55-3.23,3.94-4.74,1.24-1.36,2.37-2.71,2.44-4.64a3.69,3.69,0,0,0,.85-1.21,2.34,2.34,0,0,1,0,.41l1.7-.33-.08-.56a3.14,3.14,0,0,0-1.65.48,3.69,3.69,0,0,1-.85,1.21,5.71,5.71,0,0,0-1.88.63c-1.18.95-2.23,2.06-3.8,3.56-.23-1.41-.35-2.16-.47-2.85a29.83,29.83,0,0,0,4-3.16c.95-1.06,1.23-2.79,2.25-3.73s2.35-1.92,2.68-4.09a7.33,7.33,0,0,0-2,.64c-2,1.61-4,3.3-6.43,5.32-.26-1.22-.39-1.83-.58-2.74,2-1.74,3.6-4.11,6.23-5.44a11.09,11.09,0,0,0-.05-1.2l.12.13.71-.61-.27-.27a4.72,4.72,0,0,0-.56.75c-1,0-2,0-3,0L349,384.64c2.14-.06,1.9-2.68,4.19-3.2,3.16-.71,6-2.79,9.13-4.34-1.76-1.6-2.83.13-4.12.24a23.91,23.91,0,0,0-3.58.82c-.64-.94.52-1,.75-1.54s.61-1.19,1-1.86h3.14c2.3-1.3,3.82-3.55,6.58-3.63,1.51-1.52,3-3.05,4.88-4.88a8,8,0,0,0-1.07-2.32c-.72-.79-2-1.08-2.63-1.92-2.7-3.72-6.47-4.19-10.6-3.81a3.27,3.27,0,0,1-1.71,0c-1.26-.72-2.22-1.31-3.74-.11-.93.73-2.67-.15-3.82,1.27-.9,1.11-2.91.56-3.88,2.16a14.62,14.62,0,0,1-2.65,2.75l-2.22,5.62c0,.48,0,1.78,0,3.08,0,1.09.34,2.31-.84,3.1,1.36.94.72,2.3.79,3.58a30.55,30.55,0,0,0-9.21,9.08c-1.44,2.27-4.24,2.28-6.4,3.36-1.93,1-4.19.58-6.13,2.05-1.49,1.13-3.83,1.13-5.78,1.68-.24.07-.44.59-.61.56-4.48-.55-7.25,2.82-10.68,4.64a4.87,4.87,0,0,1-1.05.6c-4.8,1.05-8.74,3.6-12.42,6.72a20,20,0,0,1-3.55,1.88c-.95.52-1.88,1.1-3.14,1.83h-3c-2.23-1.91-3.87-4.39-6.95-5.35-1.25-.38-2.12-2.17-3.05-3.4a33.19,33.19,0,0,1-2.48-3.74,5.44,5.44,0,0,1-.2-1.92c-2.93-2-4.18-5.46-6.09-9-.32-.95.22-2.39-.64-4-1-1.82-.64-4.32-1.05-6.49a9.83,9.83,0,0,0-2.14-5.21,14.52,14.52,0,0,1-3.91-6.6c-.05-.27,0-.66-.13-.8a10.33,10.33,0,0,1-3.79-7.75c1.76-3.36-1.23-8.53,2.36-12.32l-.87-1.65c.12-.14.62-.44.66-.79.35-3.2.44-6.44,1-9.61a67.39,67.39,0,0,1,1.87-9.63c1.66-.42-1-1.49.37-2.24.6-.33.62-1.69,1-2.56a13.56,13.56,0,0,1,1.09-2.15c.5-.81,1.12-1.55,1.64-2.36.13-.21,0-.57.09-.83,1.13-3.09,2.14-6.28,5.7-7.54,3.28-3.68,8.27-5.14,11.54-8.86a10.89,10.89,0,0,1,2.69-1.69v-2.12a6.13,6.13,0,0,0-1.18-1c-1.77-.95-3.57-1.84-5.37-2.73-4.07-2-4.54-2.64-7.35-6.38-2.29-3-4.92-5.83-7.69-9.06a16.9,16.9,0,0,1-.46-1.89,6.94,6.94,0,0,1,.14-1.68l-2.89-.16c-1.65-1.69-3.24-3.43-5.57-4.32a4,4,0,0,1-2.22-1.84,9.23,9.23,0,0,0-5.31-4.87c.29-1.24.52-2.21.81-3.43,1-1,2.19-2.33,3.51-3.46.91-.78,2.06-1.89,3.07-1.85,2.13.07,3.6-1.21,5.35-1.87a54.61,54.61,0,0,1,7.1-1.72c3,0,6.05,0,9.24,0v-3.27c-5.8-5.27-11.12-11.31-14.63-19.52a10,10,0,0,0-.73-4.17,10.93,10.93,0,0,1-1-5.67c.08-1.15-.63-2.34-.76-3.54s.06-2.61-.06-3.9c-.21-2.42.45-4.69.86-7s-.59-4.52.86-6.61c.27-.39,0-1.14.05-1.71.2-1.8-.59-3.74.52-5.41,1-1.46-.6-3.51,1.21-4.72a24.21,24.21,0,0,0-1.25-9.89c-.7-1.8-.88-3.47,0-4.61-.12-1.91-.53-3.43-.22-4.78.57-2.39,1-4.84,1.6-7.16,1.1-4.1,1-8.89,5.07-11.67v-2.68l3-3a12.32,12.32,0,0,1,2.55,3.35c1.47,3.46,3.56,6.58,4.08,10.5.25,1.85,1.76,3.63,3,5.23a10.23,10.23,0,0,1,2.17,4.34c.34,1.76,2.21,3.52,3.82,5.3,1.82,2,3.78,4.23,4.62,6.72a22.11,22.11,0,0,0,2.57,4.57,49.41,49.41,0,0,1,3.83,8.85c1.34,3.49,1.22,7.55,4,10.5a5.79,5.79,0,0,1,1,2.59,17.29,17.29,0,0,0,2.63,5.85,8.13,8.13,0,0,1,1.88,4.49c.05,1.44,1.39,2.76,1.67,4.48a103.54,103.54,0,0,0,2.56,10.64,9.31,9.31,0,0,0,1.66,3.2c1.29,1.65,3.07,2.85,4,4.84.38.8,1.7,1.15,2.58,1.69,1.29-1.54,0-3-.65-3.8a17.78,17.78,0,0,1-3.33-11.24c0-1.59.09-3.19,0-4.77-.1-1.35.31-2.65-.71-4.07a4.5,4.5,0,0,1,0-4.16c1.31-1.82.56-3.6.72-5.37.3-3.5.07-7,.74-10.52.88-4.65-.89-9.32-1.92-13.89-.24-1.07-.3-2.16-.54-3.22-.36-1.61-.74-3.3-2.5-4-1-.38-1.37-1.06-1.89-1.95-2.44-4.16-4.07-8.51-3.35-13.35.51-3.52.48-7.15,1.69-10.56a15.67,15.67,0,0,1,1.06-2l8.9,1.15c1.45.6,3.23,1.22,4.89,2.05s3.15,2.31,4.91,2.8c2.22.61,3.27,2.74,5.09,3.44,2,.78,2.61,3.08,4.6,3.57s1.79,3.39,4.4,3.32a21.3,21.3,0,0,1,.76-5.54c.7-3-.35-6.06-1.19-9s-1.78-5.91-1.27-9c.46-2.79,1.3-5.52,2-8.27.93-3.7,2.72-7.21,2.33-11.2a8.56,8.56,0,0,1,.42-2c.17-1,.67-2.07.35-2.84a10.28,10.28,0,0,1,.62-9.5c.56-1,.32-2.48.45-3.84.94-1,2-1.84,3.51-.58.83.7,1.89,1.14,2.68,1.88A90.2,90.2,0,0,0,357.1,110a6.1,6.1,0,0,1,1.57,1.43c2,2.47,4,5,6.09,7.65l9.62,3.55,1.24,1.55,3.76,1.39v3.51h-2.74l-3.85-2.61H368.4c-.3-2.36-2.22-3.06-3.8-3.38a10.38,10.38,0,0,1-7.84-5.9,11.36,11.36,0,0,0-3.2-3.67c-.9-.7-2.25-.81-3.46-1.21l-.52-1.42h-1.71c-2.51-1.94-4.19-4.73-7.43-6.56.17,3.46-.5,6.36.52,9.51a8.07,8.07,0,0,1-1.47,7.91C337.55,124,337,127,336,129.81c-1.4,4-.73,8.14-.87,12.23,0,.43-.17,1,0,1.28,2.94,4.72,1.29,9.94,1.71,14.92a4.39,4.39,0,0,1-.09,1.7c-.39,1.13-.93,2.21-1.44,3.39l.67,1.2c-.08.27-.08.6-.24.77-2.14,2.2-4.74,4.13-5.47,7.28-.78,3.43-2,6.71-3,10.06-1.22,4.05-1,8.34-2.44,12.43-.84,2.46-.52,5.51-.05,8.17a20.86,20.86,0,0,0,2.41,7.23c1.08,1.8,1.13,4.19,2.14,6a86.94,86.94,0,0,0,5.16,7.85c1.48,2.15,3.1,4.2,4.56,6.36a9.48,9.48,0,0,1,.62,2.62c2.9,3.07,6.27,6.54,9.52,10.11a26.5,26.5,0,0,0,7,5.15c1.36.75,2,2.41,3.55,2.72,1.74.35,2.44,1.85,3.62,2.8,1.51,1.24,2.94,2.59,4.42,3.84s2.88,2.11,4.28,3.22a13.44,13.44,0,0,1,4,5.69c1.12,2.72,1.15,5.87,3.11,8.25.75,5.16,3.95,9.36,5.55,14.2.59,1.77,1.48,3.43,2.35,5.42.11,1.49-.28,3.61.52,5.08.94,1.71-.57,3.84,1.32,5.12-.14,5.47,2.66,10.62,1.79,16.21-.18,1.15-.47,2.48.67,3.63a2.49,2.49,0,0,1,.08,2.45c-1.24,1.41-.69,3-.79,4.47-.42,6.38-1.5,12.73-.67,19.21-2.28.94-3.21,3-4.79,4.5a14.92,14.92,0,0,0-3.49,5.06c-1.17,2.63-3.7,4.6-6.07,6-2.62,1.52-4.05,3.82-5.59,6-1.91,2.72-3.15,5.9-4.7,8.88-.13.24-.52.38-.59.62-.58,2.1-2.57,3.41-2.86,5.79a13.91,13.91,0,0,1-1.59,5.83,2.07,2.07,0,0,0,0,1.69c1.2,2.69,1.1,5.63,1.6,8.43a39.76,39.76,0,0,1,.06,8.66c-.06,1.22.84,2.16.81,3.11-.06,1.5,1,2.6.94,4s.73,2.72.8,4c.23,4.16,2,7.88,3,11.81,1,4.15,3,8.07,3.88,12.24.45,2.17.7,4.29,1.89,6-.45,1.3-.83,2.44-1.23,3.62h-1.77l-2.49-6.91c0,3.71-2.93,7.24-.8,10.87-.22,1.67-1.07,3.57-.51,4.85.93,2.12.49,4.15.73,6.21.15,1.21-.53,2.56.72,3.63.3.26.05,1.1.15,1.65.39,2-1.67,3.62-.46,6,.88,1.74.39,4.18.44,6.31.05,2.32,0,4.63,0,6.94v6.51c0,2.17-.31,4.41.11,6.49.27,1.33-1.35,2.2-.25,3.74a3.18,3.18,0,0,1-.58,3.94c1.52,1.64.66,3.84,1.43,5.79,1.91,4.81,3.81,9.52,7.17,13.53,1.68,2,2.29,4.57,3.51,6.77,2.27,4.13,4,8.61,7,12.31,2.77,3.44,3.79,7.71,5.86,11.48,1.45,2.66,2,5.8,3,8.72.08.25.55.47.52.64-.86,3.9,2.22,7.16,1.81,11-.05.41.56.89.59.93-.35,2.16-.62,3.89-1,6.29-1.3-4.95-3.08-9.06-3.25-13.75a16.62,16.62,0,0,0-2.24-7.68c-.48-.82.79-2.66-1.7-2.48-.08.71-.15,1.48-.25,2.24-.23,1.77.51,3.63-.78,5.35-.34.44.85,2.1.52,2.46-1.12,1.23.73,1.84.33,2.93a9.14,9.14,0,0,0-.07,3v3.62c2.64,1.44,3.24,4.69,5.66,6.62s4,4.62,5.89,6.86c2.43-.33,4.4-2,6.69,0,0-2.24-1.88-2.73-2.62-4.31v-3.26l-1.6-.55v-3l1.55-.55-2-2.55c2-1.32,3.58-.35,5.2.1l-3-2.76c-1-.84-2.88-.73-2.75-2.82,2.73-1.21,4.86.95,7.28,1.36l1.78,2.76c.46-.91.83-1.62,1.35-2.63V580a55.81,55.81,0,0,1,0-6.07c.23-2.07-.94-3.71-1.2-5.63-1.14.49-1.59,2.19-3.23,1.71a.6.6,0,0,0,.13-.12l-.6-.71-.27.27a4,4,0,0,0,.74.56,9.25,9.25,0,0,1,1.43,1.82c.46.89,1,1.94-.52,2.48-1-2.3-3.45-2.41-5.28-3.42a18.5,18.5,0,0,0-4.14-1.21v-2.34l6.65,1.8c-.09-.64-.05-1.63-.26-1.68-2-.52-2.91-2.05-3.91-3.57h2.77c-2.23-3.45-6.93-2.38-8.85-5.94h3.78l3.61,1.74c.21-.5.32-.75.5-1.16l-2.69-2,.16-.49c1.68.29,3.37.58,4.71.87,1.51,1.18,2.07,3.41,4.65,2.3a5,5,0,0,1-.67-.86,12.52,12.52,0,0,1-.52-1.44h-3.46a.87.87,0,0,0-.27-1c-3.14-1.78-6.05-4-10.15-4.4l1.86-1.53c1.92,1.28,4.76.62,6.8,2.56.37.36,1.39,0,2.17.1,1.07.86,1.07.86,2.51.06-1,0-1.77,0-2.51-.06-1-2.16-2.89-2.88-4.87-3.53-2.31-.75-4.37-2.46-6.88-1.68l-1.32-1.38,3.57-1.24c1.16,1.07,2.64.88,4.29.17l-5.92-2.69h-5.32v4.21l-1.95,3.34a4.27,4.27,0,0,1-.7-.24c-3.66-2.12-4-3-2.66-7.21.39-1.23.75-2.46,1.17-3.87,1.24,1.57.14,2.56-.3,3.59a18.57,18.57,0,0,1,.84,2.31,10.19,10.19,0,0,1,0,2l1.47.13c.47-1.9,1-3.84,1.46-5.9,2.94-1.14,5.86.59,8.89.72,2.78.12,5,2.56,8,2.61v-2.74l-2.57.93c-4.39-2-8.78-5.49-14.6-4.1v-2h8.33c-4.18-2.46-8.18-1.35-11.88-1.88v-1.1c2.25-1.89,5-1.21,7.95-1.9l-1.63-.4.49-.51-8.5-1.4a2.51,2.51,0,0,1,3.6-1.37c2.49,1.36,4.95.39,8.06,1-1.7-2.15-3.29-2.82-5.28-2.79s-4.25,0-6.88,0l1.54-2.6h5.45l1.26-1.35c-2.79-1.46-5.74-1.29-8.67-1.25,1.3-1.59,3.38-1.14,5.11-2.19l-2.56-1.42h-4.14l-.05-.44,7.73-1.52-1.1-1.19c-2.13-.74-4.58.73-6.5-1l-3.86,1.35,1.13,2.47-3.6,7.47c.28.55.59,1.13.85,1.61-1.44.83-.57,2.16-.72,3.22a3.58,3.58,0,0,0,.67.23c0-1.16,0-2.25.05-3.45a7.11,7.11,0,0,0,1.42-.68c1.5,1.94-.89,3.58-.49,5.46,1.51.51,2.06,1.82,2.59,3.14L378.09,535l-1.68-2.55-.54.49V531.2c-.51-.18-1.21-.21-1.49-.56-1.44-1.85-2.56-3.43-1.29-6.29,1.05-2.37,1.78-4.8,3.6-6.91v-7.69l-3.05,5.13c-.42,2.21-.83,4.64-1.36,7-.11.49-.65.89-1.26,1.21a23,23,0,0,1,1.17-7.12c.86-2.28-.27-4.65.76-7,.95-2.2.84-4.85,1.23-7.3s.78-4.61,1.21-7.11l1.08-1.09.43,1.6.62-.47v4.08l1.37,2.68c.11-.07.3-.13.3-.2.07-3,.49-6.07.08-9-.33-2.4-1.64-4.65-2.65-7.33,4,2.3,4.7,6,5.78,10,1.52-5.24-1.36-9.26-2.22-13.5L376,477.16v-2.4c.24,0,.52-.05.63.06,1.66,1.62,3.24,3.31,4.94,4.88a11.85,11.85,0,0,1,3.32,5.25c.61-2.54,0-3.74-2.52-8-1.41-2.35-1.81-5.25-4-7.28a7.5,7.5,0,0,1,5,3.84c1.62,2.66,2.09,5.94,4.49,8.13.33,2.84,2.3,5.27,2,8.3-.28,2.71.63,5.62-1.6,8.12l-1.62-.89-2.87,7.6h-4.91l-.42,1.4a3.66,3.66,0,0,0,1.12.41c3.18,0,6.37.1,9.54,0a8.2,8.2,0,0,1,5.16,1.42,3.85,3.85,0,0,1-2.64,2.78,5.55,5.55,0,0,0-1.69-1.54c-.57-.31-1.48-.17-1.88-.58-1.27-1.32-2.45-1.86-3.9-.36-1.37-1.81-2.75-.48-4,.07-1.49.64-2.11,1.76-1.48,3,2.35-.22,4.86.2,6.56-.77,2.5-1.42,4.22,1.73,6.42.21.11,1.61,1.25.8,2.07,1.09,2,2.71,1.91,6.25,2.94,9.74l-.88,1.77,4.88,2.37c.45-3-1.33-5.43-2.59-7.57a18.37,18.37,0,0,1-2-6.12c-.5-2.55-.64-5.14-1.75-7.55a3.88,3.88,0,0,1-.1-2.12c.59-3.58-1.07-6.94-1-10.49,0-1.09-1.48-2.08-.18-3.79-.28,2,2,1.72,2.07,3.48,0,1.28.82,2.52,1.27,3.79l1.57,4.54c.28-.6.57-.91.52-1.16-1.06-5.15-1.11-10.5-4.17-15.22-1-1.59-2.85-2.67-3.2-4.72a21.39,21.39,0,0,0-.78-2.2c1.79,1.52,3.84,1.37,3.88,3.56,2.34,2.37,3.74,5.33,5.19,8.26a18.32,18.32,0,0,0,1.71,2.34v3.27l.46.38c.3-.58.59-1.16,1-1.93,5.76,3.42,6,9.8,8.64,15.35.61-2.15.19-4,.33-5.3-1.6-4.7-5-8.18-5.36-13.05l-1.81-1.7a10.94,10.94,0,0,1-.64,1.76,10.6,10.6,0,0,1-1.13,1.31c-.21-.13-.51-.2-.57-.36a22.71,22.71,0,0,1-1.7-4.49c-.63-3.53-3-6-4.85-8.85-.83-1.27-1.69-2.71-3.26-3.37a1.25,1.25,0,0,1-.6-.6c-.26-.67-.43-1.38-.81-2.65,2.38,1.7,4.61,2.53,6.06,4.77,1.26,2,3.06,3.56,5.22,6-.44-6.36-4.1-10.41-6.55-15.5l2.69,1.09a2.61,2.61,0,0,0,.31.46c2.14,2.41,3.22,5.5,5.24,8l-.13.12.61.71.27-.27a4.19,4.19,0,0,0-.75-.56c-.41-2.41-.78-4.86-1.2-7.6a51.66,51.66,0,0,1-3.09-6.14c-.48-1.31-2.46-1.79-1.82-3.58,2.76,1.75,5.86,3.16,6.28,7.55,1-2.1.45-3.34-.12-4.79C402.93,458.66,401.08,457,401.08,454.54Zm-16.57,116.4.17-.17-.6-.71-.28.27a1.36,1.36,0,0,0,.87.42l-.17.17c.2.24.4.48.61.71l.27-.27A1.38,1.38,0,0,0,384.51,570.94Zm37.31-50.51.17.17.71-.61-.27-.27a1.32,1.32,0,0,0-.43.86l-.17-.17-.71.61.28.27A1.36,1.36,0,0,0,421.82,520.43ZM447,346.14l.17-.17-.6-.71-.28.28a1.41,1.41,0,0,0,.87.42l-.17.17.61.71.27-.27A1.34,1.34,0,0,0,447,346.14Zm-37.15,14.74-.17-.16-.71.6.28.27a1.36,1.36,0,0,0,.42-.86l.17.17.71-.61-.27-.27A1.32,1.32,0,0,0,409.85,360.88ZM383.8,590.72l-.17.17.61.71.27-.28a2.5,2.5,0,0,0-.79-.51l-.86-.87c-1.23-3.5-4.83-4.78-6.77-7.22v-2.64l9.31,7.32,2.11-.24c-1.12-1-1.9-1.74-2.74-2.42-.53-.42-1.36-.6-1.67-1.12a25.05,25.05,0,0,0-7.91-8,5,5,0,0,1-1.92-4c1.87-.06,2.37,1.36,3.37,2a11.29,11.29,0,0,0,2,.78c-1.49-4-4.53-5.49-7.9-7.59a20.85,20.85,0,0,1,0,2.56c-.52,3.29,1.2,6.37.86,9.61a13.52,13.52,0,0,0,1.92,7.87,103.36,103.36,0,0,0,7.41,12.16,32,32,0,0,0,8.87,8.07c3.05,2,5.67,4.37,8.55,6.47,4.32,3.14,6.49,8.18,10.51,11.67,3.14,2.72,5.39,5,10.27,7.19a44.08,44.08,0,0,1-7.75-15.39c-.53-.52-1.62-1.12-1.88-2-.8-2.57-3.14-3.45-5-4.77a67.19,67.19,0,0,1-9.33-7.73,9.92,9.92,0,0,1-1.26-1.81l-5.13-3.13-1.57.92c.05-2.35-1.95-3.12-3.37-4.34s-2.71-2.26-4-3.49c-.34-.34-.27-1.09-.42-1.83l3.42,1A4,4,0,0,0,383.8,590.72ZM320.44,280l-.17.17.61.71.27-.28a2.39,2.39,0,0,0-.79-.51v-1.74h-1.73c-.18-1.94-.66-2.42-2.22-2.54-1.27-1.63-2.33-3.06-3.46-4.42-.65-.77-1.71-1.31-2.09-2.18-2.36-5.49-6.52-9.59-10.46-14v-3.09L297.51,250c-.19-3.39-.34-6.75-.59-10.09s-.9-6.36-1-9.61.79-6.6,1-10.06l-1.69-1.13c1.89-3.16-.18-5.76-.58-8.49-2.71-2.93-3.28-7.24-6.4-10a3.09,3.09,0,0,1-.86-2.19c.08-2.29-1-4.22-1.51-6.32-.56-2.34-1-4.55-2.84-6.23-.22-.19.1-.89-.06-1.26-1.08-2.44-1.91-5.08-3.41-7.23-2.39-3.43-5.26-6.51-7.89-9.77a10.16,10.16,0,0,1-1.23-2.09c-1.62-3.52-3.17-7.07-4.82-10.57-.56-1.18-1.32-2.27-2-3.4a2.56,2.56,0,0,0-.57,2.16,12.22,12.22,0,0,0,.83,1.81,6.2,6.2,0,0,1,.83,2.24c0,3.91,1.5,7.56,2,11.41.28,2.47.19,5.36,2.19,7.71l3.22-5.57,1.55,2.19-1.05,1.13c0,5.76,0,11.54,0,17.32a9.71,9.71,0,0,0,.31,2.91c.93,2.78,2.08,5.5,3,8.29a39.34,39.34,0,0,1,1.8,6.6c.23,1.57.29,3,1.57,4.17,1-3,1.72-6,2.92-8.79.63-1.48,1.31-3.25,3.23-3.93.68,2.76-1,4.83-1.55,7.17-.53,2.52-1.62,4.87-1.82,7.51a57.39,57.39,0,0,1-1.47,7.24c.78,2.78,2.39,5.5,2.46,8.74,0,1,.75,2,1.19,3.1,2.5-2,.71-4.58,1.6-6.59,1.22-2.41,2.44-4.83,3.69-7.33l1.4,1.52L289.21,226c0,3.1-1.47,6.31-1,9.75s.76,6.67,1.13,10l2.68,5.77c1.65,2.63,3.51,5.2,5.37,7.76l5.5,7.57c3.64.3,4.47,3.58,6.72,4.43,2.6,1,3.33,4.37,6.39,4.45.19,1.94.66,2.42,2.61,2.6A17.61,17.61,0,0,0,320.44,280Zm101,287.51c-.59-.67-.76-1-.89-1a6.73,6.73,0,0,0-1.21.37c.52.15,1,.3,0-.33l-.13-1.65H416.3C417.6,565.64,418.44,566.09,421.41,567.51ZM381,566.6l.17-.17-.6-.71-.28.27a2.52,2.52,0,0,0,.79.52c-.08,1.67.69,2.48,2.63,2.65-.54-1.09-.92-1.88-1.3-2.65A7.64,7.64,0,0,0,381,566.6ZM420,483.16l-.75,0,.33,1.7.56-.08a3.13,3.13,0,0,0-.52-1.73c-.47-1.39-.94-2.78-1.55-4.56C417,480.75,418.5,481.81,420,483.16ZM370.63,345.42l.5-.66-2.08-.79.42-.59-3.05.3,0,.47c1.41.42,2.82.85,3.66,1,1.13.63,1.8.94,2.41,1.35s1.26,1,1.94,1.5c1.43-1.61-.12-2.08-.7-2.85A13.69,13.69,0,0,0,370.63,345.42Zm44.42,149.82-.17.17.6.71.28-.27a2.62,2.62,0,0,0-.79-.51,12.65,12.65,0,0,0,0-2.89c-.38-1.61-.65-3.38-2.57-4.06a9.55,9.55,0,0,0-1.63-6.67c-.62-.84-1.84-2.28-.46-3.83.68.73,1.7,1.35,2,2.21.93,3,3.6,5,4,8.25.09.64.85,1.19,2,1.76l-.75,0,.33,1.7.56-.08a1.92,1.92,0,0,0-.82-1.63c.2-3.81-2.16-6.95-2.76-10.61-.37-2.23-2.13-4.26-2.82-6.61-.21-.73-1.17-1.25-1.69-1.77-1,1.69-2.09,3.41-3.18,5.2.31.53.64,1.11,1.07,1.87-.85,1.13-2.74,1.92-1.6,3.72a14.72,14.72,0,0,1,2.3,2.09c1.26,1.37,1.46,3.59,3.47,4.37C412.61,490.94,413.05,493.41,415.05,495.24ZM382.86,563c-.08,1.67.69,2.49,2.63,2.66L384.18,563h-1.32c-.1-.52,0-1.24-.32-1.55-1.57-1.56-3.25-3-5-4.43l.17-.17-.61-.71-.27.27a2.78,2.78,0,0,1,1.66,2.74c1.19,1.12,2.22,2.41,3.52,3.85Zm33.06-149.37-.17.17.6.71.27-.28c-.23-.2-.47-.4-.78-.1v-2c-2.08-2.88-3.88-5.4-5.69-7.91L409,405.39v2.92C411.29,410.05,412.67,412.69,415.92,413.66Zm-43.4-63.36-.17.17.6.71.28-.27a2.36,2.36,0,0,0-.79-.52c-1-2.3-3.48-2.34-5.27-3.44a10.55,10.55,0,0,0-4-1.7c-4.2-.47-8.43-.64-12.65-.95-.21,0-.41-.32-.67-.53.09-.36.2-.75.28-1,1.56-.53,3.32.59,4.35-.76a14.34,14.34,0,0,0,2.4.58c.54,0,1.11-.43,1.65-.41a11.17,11.17,0,0,1,2.4.46c.64.17,1.26.44,1.88.67l.32-.59-2-1.56.18-2.35,9.27,1.91v-2.21c-1.49-.23-3.08-.07-4.16-.74-1.63-1-2.57.44-3.55.52a9.26,9.26,0,0,0-2.11-.84c-2.67-.29-5.1,1.15-7.62,1.33s-3.26,2.47-5.31,3c-2.23.62-3.64,2.56-5.18,4.17a4.1,4.1,0,0,0-1.2,2.08c-.28,2.24-1.76,3.92-2.47,5.93s-1.6,3.84-1.17,6.07l-.17-.17-.71.6.28.28a2.62,2.62,0,0,0,.51-.79,12.05,12.05,0,0,0,1.65-1.24c7-7.18,5.57-5.46,13.7-5.73,3.17-.11,5.88,1,8.73,2.6,4.1,0,4.11,0,7.67,1.84,1.91,1,3.79,2,5.67,3.07a1.86,1.86,0,0,0,2.73-.5,17.85,17.85,0,0,0-5.85-5.22c-.94-.5-2.19-.6-2.92-1.28a19.68,19.68,0,0,0-8.81-5.2c0-.52-.06-.74,0-.8,2.35-1.92,4.32,1.86,6.46.21C368.34,349.74,370.41,350,372.52,350.3Zm-82.45-92-.17.17.6.71.27-.28a2.45,2.45,0,0,0-.78-.51c0-.72.28-1.88-.05-2.1-2.11-1.38-1.53-4.09-3-5.71-5.8-2.07-9.59-7.2-15.07-9.93-.35-1.14-.74-2.38-1.24-4,4.31,2.81,8.12,5.32,12,7.78.27.18.77,0,1.25-.06v-2.12c-.95-1-1.72-2.2-2.83-2.72a10.13,10.13,0,0,1-4.55-4.6,19.34,19.34,0,0,0-3.06-3.92c-1-1.06-2.42-1.77-3.53-2.76-1.4-1.25-2.67-2.64-3.54-3.51l-3.51-8.2c2.82.51,3.95,2.36,5.05,3.8a98.29,98.29,0,0,0,8.94,9.63,7.26,7.26,0,0,0,1.93.87,74.15,74.15,0,0,0-2.08-7.83c-.86-2.26-.19-5-2.26-6.88-.14-.13,0-.56,0-.85-.33-4.31-1.52-8.11-6-9.94-.34-5.55-4-9.61-6-14.47,2,1.47,3.54,3.44,6,4.08l-.17.17.6.71.28-.27a2.47,2.47,0,0,0-.79-.52c0-1.59.47-3.38-.11-4.72a28.22,28.22,0,0,1-1.53-7.15c-.38-2.6-1.56-5.14-1-7.87a2.14,2.14,0,0,0,0-1.28c-1.32-2.66-.87-5.67-1.72-8.4s-.84-5.91-2.07-8.68a3.27,3.27,0,0,1-.49-1.51c.49-3.45-1.95-6.28-2-9.62,0-.48-.49-1-1.16-2.17-.48,5.05-.85,8.94-1.21,12.82-.05.57.21,1.45-.08,1.67-1.31,1-.56,2.41-.8,3.61a15.85,15.85,0,0,0-.81,3.54c.17,4.51,0,9.15,1,13.48a17.1,17.1,0,0,1-.25,10.13c-.79,2.19-1.9,4.22-1.78,6.66,0,.4-.6.83-.86,1.16.87,1.92,1.58,4.35.91,5.92-1.43,3.33-.72,6.73-.71,10.07a17.41,17.41,0,0,0,1.42,6.75c3.12,7.08,6.61,13.95,11.78,19.88,1.26,1.45,3.54,2.1,3.9,3.88s1.82,1.51,2.63,2.27.78,2,2.24,2.67c2.09.89,3.8,2.8,5.51,4.45C283.71,255.09,286.47,257.3,290.07,258.3ZM340,292.23a7.57,7.57,0,0,1,3.84,2.14,86.72,86.72,0,0,0,6.78,5.65c3.08,2.23,6.37,4.18,9.5,6.36,1.82,1.26,3.43,2.83,5.28,4.05a14.27,14.27,0,0,1,4.56,4.71c1.54,2.6,3.77,4.78,5.36,7.35s3.46,5,4.26,8.23a94.94,94.94,0,0,0,3.53,9.8c.52,1.42,1.79,2.57,2.91,4.11.49-1.91,1.49-3.55,1.1-4.75-1.05-3.23-1.13-6.67-2.46-9.82a19,19,0,0,1-1.68-10.32c-1.1-1.52-3.12-2.18-2.7-4.27A53.38,53.38,0,0,0,364,300.58a64.36,64.36,0,0,0-20.28-7.71l.29-1.54c4,.36,7.9-.59,11.81.61l.4-.39,10.72,4.63c-1.32-1.9-2.06-3-2.82-4s-1.43-2.83-2.5-3.18c-1.61-.54-2-1.69-2.69-2.85-.56,0-1.3.23-1.68,0a53.69,53.69,0,0,1-4.56-3.66c-1.25-1.14-2.44-2.23-4.25-2.37a3.45,3.45,0,0,1-1.43-.69c-3.42-2.24-6.89-4.41-10.2-6.79a9.42,9.42,0,0,0-4.37-2.12c-.83-.11-1.55-1.08-2.36-1.68-2.34.05-4.79.36-6.66-1.71-1.13,0-2.68.45-3.33-.12s-3.07-.08-2-2.48c1.74,0,3.61.13,5.44,0,3.15-.28,6,.72,8.76,1.94,1.1.49,2.18,1.45,3.27,1.46,4.07,0,6.74,2.72,9.82,4.67a12,12,0,0,0,1.63.71c-1.36-1.73-2.19-3.8-4.39-4.47a2.82,2.82,0,0,1-1.37-1.5c-1.83-4.2-6.62-4.9-9.39-8-.13-.15-.6.08-.84,0-1.08-.53-2.13-1.13-3.21-1.67a38.77,38.77,0,0,0-3.61-1.76,20.24,20.24,0,0,0-5-1.56c-3.83-.43-7.38-2.42-11.37-2a5.87,5.87,0,0,1-2.07-.58l-1.18,1.36a16.78,16.78,0,0,0,1.68,2.89A128.38,128.38,0,0,1,316,268.83c.15.22.18.68.33.71,2.19.43,3.42,2.25,4.43,3.78,1.2,1.81,3.18,2.48,4.4,4.14a79.49,79.49,0,0,0,5.5,6.41,32.16,32.16,0,0,0,7.52,5.89,3,3,0,0,1,1.09,2.5c-1.77.22-3.26-.67-4.71-1.81a7.09,7.09,0,0,0-1.91-.78l-.22.48,6,4.71,1.83-.12A3.05,3.05,0,0,1,340,292.23Zm43,58.07-.17.17.61.71.27-.27c-.23-.21-.47-.41-.79-.11,0-1.13.31-2.16-.05-2.53-2.12-2.19-2.3-5.22-3.14-7.82-.92-2.84-2.73-5.25-3.32-8.21-.27-1.39-.54-2.95-2-3.95-.84-.57-1.88-1.86-1.75-2.64.31-1.83-2-1-2.1-2.66,0-1.24-1.93-2.31-2.52-3.67a6.19,6.19,0,0,0-3.37-3.32,2.22,2.22,0,0,1-1.2-1.21c-.59-2.18-2.38-2.75-4.16-3.49-1.48-.61-2.78-1.71-4.28-2.23-2.94-1-5.19-3.21-8.26-4.2-3.4-1.09-6.39-3.48-10.26-5.71-5,.14-6.84,4.79-9,9.1-.54,1.37.52,3.07-.94,4.38a1.74,1.74,0,0,0,0,1.65c1.72,2.66.34,5.48.41,8.26L324,316.94c-.34-2.21-.83-4.52-1-6.86s0-4.84,0-7l5.24-5.24L327,296.78c-5.67-1.15-11,.59-16.17,2.49-2,.73-3.59,2.47-5.06,3.53-.25,1.7.32,3.11-1.15,4a1.79,1.79,0,0,0-.68,1c-.53,1.81-1,3.63-1.45,5.47-.16.71.64,1.56-.29,2.21-.07.05,0,.29,0,.42.58,1.79,1.17,3.57,1.76,5.36l-.66.72c1.24,3.92,2.56,7.69,2.33,11.72-.22,3.83,1.1,7.87-1.49,11.87-.56-4-2.41-7.43-1.95-11.27a1.57,1.57,0,0,0-.05-.84c-2-3.61-2.43-7.69-3.43-11.61a14.83,14.83,0,0,1-.82-2.24c-.25-4.06-.06-8.05,2.08-11.72a9.24,9.24,0,0,0,.48-2.83c-2.14,1.4-4.43,2.14-5.45,3.71-2.3,3.56-5.78,5.89-8.23,9-.42,3.29-.83,6.47-1.11,8.7.82,2.12,1.26,3.39,1.79,4.61.86,2,1,4.19,2.56,5.88,3.07,3.41,3.72,8,5.76,11.94.6,1.15.18,2.79.39,4.18a5.92,5.92,0,0,0,.87,1.74l-1.43,2.67c-.72-1.68-1.82-3.24-2-4.89a14.3,14.3,0,0,0-1.32-4.69c-1-2.33-1.84-4.73-3-7-.84-1.73-1.81-3.28-2.79-4.92-1.29-2.16-3.42-4-3.46-6.79-1.82-1.2-.16-3.3-1.24-4.78l-1.11,1.05c-.39,2.74-.84,5.33-1.1,7.95-.35,3.49-.06,7-.7,10.52-.8,4.46-.8,9.32,3.13,12.92.16.14,0,.58.17.78,2,2.76,2.42,6.06,3.1,9.25-.33.32-.63.63-.71.71a53.14,53.14,0,0,1-3.86-5.21c-1.12-1.95-1.56-4.38-4.37-5.1-.2,1.29-.08,2.56-.62,3.4s.7,1.79-.44,2.64c-.61.45-.75,1.69-.9,2.6-.18,1.11.25,2.55-.31,3.32-.83,1.13-.14,2.35-.65,3.22-.62,1-1.14,1.88-.42,3.21,1.32-.47,2.72-.88,4-1.45a21.38,21.38,0,0,1,9.13-2.07c1.3.05,2.74.38,3.88-.06,3.27-1.27,6.82-.69,10.15-2,1-1.3,2.53-2.56,3.22-4.16,1-2.36,3-4.16,3.48-6.8.34-2,.81-4,1.32-6,.87-3.38,1.07-7.07,3.49-9.82s4.6-5.8,8.67-6.94c4.68-1.31,8.72-4.23,12.68-7,2.7-1.9,5.64-3.46,8-5.82a49.85,49.85,0,0,1,5.47-4.21c3.08,0,5.88-.62,8.17.19,1.84.65,3.75,0,5.58,1.24s2,3.25,3.69,4.41c2.67,1.84,4.37,4.63,5.81,7.52.24.48.41,1,.69,1.45,2.07,3.34,4.19,6.65,6.25,10C378.27,346.57,379.5,349.24,382.93,350.3ZM296.78,392c-.61,0-1.09.09-1.15,0-1.19-2.45-2.47-4.9-2.17-7.77a14.74,14.74,0,0,0-.82-7l1.11-2.6-5.33,1.3-3.2,8.53c-.58,3-1.05,5.33-1.54,7.85l-1.31-.49c-1.16-5.24,1.47-10.19.52-15.22-3.7,1.85-7.85,2.26-10.89,4.53-.41,1.38-1.12,2.57-1,3.7.28,4.11-.74,8-2,11.77,3,2.83,4.43,7,8.59,8.33l4.45-2.16.44.44a98.74,98.74,0,0,1,10.29-6c3.39-1.61,6.66-3.47,9.93-5.32.94-.53,1.5-1.42,2.79-1.71a14.92,14.92,0,0,1,4.44-.74c1.69.13,3-1.41,4.85-.91a4.17,4.17,0,0,0,2.57,0c6.41-2.78,12.85-5.48,14.38-13.59.64-3.4,1.38-6.87,3.39-9.86a19.62,19.62,0,0,0,1.17-2.38c-1.8-1.73-1.61-4.08-.88-5.89,1.07-2.66,1.49-5.45,2.32-8.14,1.76-5.71,3.16-7.82,7.32-10.32a63.1,63.1,0,0,1,5.67-3.06c2.29-1.08,4.77-.27,7.15-.53.25,0,.47-.27.69-.41l-.91-1c.08-1.24,1.81-2.32.44-3.85-3.26.68-5.91-1.62-9-1.87-.05-1.16-.1-2.13-.17-3.59l-5.77,1.87v4.75a41.14,41.14,0,0,1,6.76-1,44.83,44.83,0,0,1,6.86,1.06l.09,1.17c-1.06.38-2.34,1.31-3.25,1-1.22-.37-2.15,0-3.22.09s-2.62.53-3.35-.53c-4.14.69-7.55,2.88-11.19,4.57-4.13,1.93-5.28,6.09-7.48,9.26-.36,3-.15,6.18-1.23,8.77-.79,1.9.12,3.9-.82,5.27-1.25,1.84-.54,3.6-.69,5.37-.17,2,0,4,0,6l-1.4,1.39c-.44-3.31-.35-6.38-1.37-9-.66-1.73-1.09-3.57-.55-4.85.94-2.25.5-4.43.73-6.39,2.74-4.56,2.52-9.72,4.74-15.06l-7.29,2.61c-2,2.31-4.86,4.13-6.12,7.2-.13,2.69.55,5.48-1.78,7.66a8.66,8.66,0,0,1-1.65,6.19c-1.27,1.72-1.5,3.81-.23,5.27-1.5,4.9-.06,9.65-1,14.3-2-1.35-2.31-2.94-2.32-10.17l-1.19-1.19-5,4.27h-4.06c-.38,2.14.14,4.25-.9,6.24a4.91,4.91,0,0,0,.08,3.78C297.51,386.64,296.71,389.33,296.78,392Zm-40.7-34.54a71.36,71.36,0,0,1,7.22-5.88,42.69,42.69,0,0,0,5.43-4.56c3.35-3,5-6.92,6.21-10.91.58-1.91,2-4.19.84-6.56a33.07,33.07,0,0,1-5,3.08c-1.63.63-2.61,2.26-4.77,2.26-1.77,0-3.55,1.26-5.51.35l2.06-2.11c.84-.17,1.81-.07,2.14-.49,1.47-1.8,3.5-2.68,5.48-3.61a19.59,19.59,0,0,0,7.77-6.22c1.91-2.71,4.39-4.81,6.5-7.27a40.46,40.46,0,0,0,2.74-4.23c-1.75.1-3-.16-3.86.31-1.42.79-2.61.11-3.87.14-2.05,0-4-1.32-6.33.15-1.66,1.06-4.18.76-6.43,1.09v-2.24c6.82-3,6.82-3,11.82-2.91,1.08,0,2.27-.42,3.21.7a1.77,1.77,0,0,0,1.62.12c2.57-1.23,5.51-1.32,8-2.6s5.18-2.86,7.75-4.32c.16-.09.2-.39.3-.59l-1.21-1.14c-.38,0-.74-.11-.95,0-1.79,1.12-3.79.73-5.72.87a11.24,11.24,0,0,1-5.42-.91c-.15-.06-.2-.38-.29-.57l.81-.8c1.28.18,2.79.89,3.53.41a6.78,6.78,0,0,1,4.91-.69c3,.39,5.91-.53,8.72-1.11,2.35-.48,4.88-.51,7.13-1.56a20.27,20.27,0,0,1,9.69-1.74c1,0,2,0,2.84,0l1.32-1.41a18.48,18.48,0,0,0-3.1-1.16,52,52,0,0,0-6.58-.87c-2.3-.15-4.63.06-6.93-.07a14.52,14.52,0,0,0-6.13.95c-2,.8-4.18,1.08-6.23,1.72a58.19,58.19,0,0,1-9.06,2.19l-1.35-.64L283.1,297c-2.24.63-3.9.62-4.78,1.44-3.19,3-7.4,4.61-10.11,8.19-1.78,2.35-3.95,4.41-5.76,6.74a28.38,28.38,0,0,0-2.3,4.2l.52.37-3,2.42,1,.38c-3,2.13-.55,5.4-2.42,7.85-.27.35.85,1.64.61,2.18-.38.89-.4,2.33-.76,2.57-1.28.85-.55,2.14-1.05,3.12a14.84,14.84,0,0,0-.62,3.21c-.51,2.23-1.09,4.45-1.66,6.76l.84,1.2c-2,3.94-2,3.94-1.17,5.79-.31,2.13-.54,3.73-.72,4.93a7.28,7.28,0,0,1,1,1.44c1,4.13,3.57,7.3,6.3,10.42,2.47,2.83,4.73,5.84,7.06,8.74,2.41.85,3.08-1.92,5-2-.13-.84,0-1.52-.33-1.91a4.64,4.64,0,0,1-.38-4.41,56.86,56.86,0,0,0,1.44-8.07c.44-2.89.49-5.85.94-8.74a33.59,33.59,0,0,1,1.53-4.85l-1-.94a84.34,84.34,0,0,1-7.57,6.33c-2.84,1.87-5.08,4.65-8.49,5.64-.22.06-.51-.14-.89-.25Zm54.74-188.07-6.7-5.57c-.77,2,.66,3.21,1.42,5.06a38.81,38.81,0,0,0,1.66,7.51,40.85,40.85,0,0,1,1.94,11c0,4.22-.65,8.48.73,12.68.48,1.43.08,3.15.08,4.74v4.78a44.42,44.42,0,0,1,0,4.76c-.16,1.49.78,3.19-.72,4.46,1.33,1.37.76,2.67-.08,4a1.56,1.56,0,0,0,0,1.27c.86,1.81,1.77,3.61,2.74,5.37a34.36,34.36,0,0,1,1.67,3.65c1.19,2.85,2.17,6,4.77,8s4.66,4.45,7.23,6.42c1.89,1.45,3.49,3.36,5.54,4.48a17.07,17.07,0,0,1,3.55,2.88c.85.8,1.48,1.82,2.33,2.62s2,1.69,3.06,2.52c2.09-2.06,4.73-1.57,8-1.65l-2.37-1.92h-6.14c-.3-2.13,1.58-2.07,2.59-3l-4.8-1.64,5.93-2.64-4.52-2.49c2.05-3.14,4.43.18,6.69-.57v-2c-1-1.06-2-2.11-3.06-3.31l-3.51.82L331,239.78c-4-2.95-9.8-2.86-13-7.53l6.21,2.35c1.33.75,3.09-.38,4.29,1.2,3-.07,5.93,1.88,9.33.44-.46-.69-.75-1.68-1.33-1.91-2.26-.86-3.44-2.79-4.95-4.43-1.24-1.35-2.42-2.87-4.58-2.77-.41,0-1.1,0-1.18-.19-.81-1.91-3-1.22-4.28-2.38s-3-1.5-4-2.7-2.84-2.22-3.09-4.78c4.13,2.91,8,5.16,13.08,5.76l-3.41-10.44a23.34,23.34,0,0,1-3.42-2.74c-2.66-3-5.17-6.22-7.68-9.4-.33-.41-.29-1.11-.57-2.27,3,3.07,5.62,5.38,9.69,5.76-.45-.8-1-1.36-.9-1.67.62-1.68-1.36-3.27-.09-4.92-1.72-1.7-.4-3.84-.84-5.72-.15-.65-.77-1.35-.63-1.87.57-2.09-2-2.71-1.94-4.43.06-2-1.14-3.25-2-4.83C314,177.18,312.75,173.77,310.82,169.42Zm-66.41,90.21,9,5.15c.4,1.2.82,2.48,1.24,3.78.53.28,1.31.45,1.67.94,1.73,2.3,3.36,4.67,5,7a22.81,22.81,0,0,0,8.22,7.71,9,9,0,0,1,3.61,3.66l12.07,5.37,4.14-1.9c1.42-.67,2.83-1.36,4.23-2-1.34-3.2-1.4-3.47.45-5.89.82-1.07,1.72-1.91.64-3.5-1.63,2-3.2,3.92-4.79,5.84-.11.13-.39.12-.59.18l-.46-1.35c-4.14-1.25-7.15,2.53-11.39,2.33,1.29-2.93,3.39-4.16,5.72-5.12a11.16,11.16,0,0,0,5.23-4.42c-4.42-4.76-4.71-4.89-7.29-3.54l-6.88-8.48h-3.51l-1.17,2c-1.27-.34-2.18-.61-3.11-.83-.67-.15-1.6-.58-2-.29-2.39,1.76-4.91.32-8,1.05,2.62-3.1,5.84-3.57,8.38-5.08-.55-2.55-1.44-3.77-3.68-3.76-3.14,0-5.64-1.73-8.66-2.17l.47-1.38a35.84,35.84,0,0,0,4.41,0,7.32,7.32,0,0,1,4.7,1.26c2.09,1.24,4.55,1.79,6.35,3.61.44.44,1.48.3,2.42.46l-2.12-4.86c4.45,1.7,4.2,7,7.92,7.64.9,1.83,1.67,3.38,2.28,4.63,2.84,1.08,4,3.78,6.45,5,2.21,1.13,3.44,3.89,6.61,4.82-1.2-2.48-1.54-4.8-3.08-6.84-1.33-1.76-2-4.07-2.81-6.18a16.44,16.44,0,0,1-.48-3.17L294,274.92l1.56-.1,2.54-4.48c1.78,2.56-.81,4.73-.08,7.55l5.88-6.61c-2.08-1.55-4-2.9-5.79-4.35-.9-.72-1.51-2-2.49-2.38-3.29-1.35-6.14-3.37-9.16-5.17a35.85,35.85,0,0,1-8-5.92c-3.24-3.39-7.77-3.58-11.95-4.62-2,1.5-4.38.62-6.15.86C254.8,252.58,248.58,253.75,244.41,259.63Zm75.34-79.21.75-.57c-.54-1.36-1.12-2.71-1.61-4.09-1.08-3-2.15-6.06-3-9.19-.89-3.31-.84-7.24-4.3-9.3.63-1.76-1.85-3.06-.33-4.77,3.16,4.17,8.33,15.57,9,20.63.3,2.14,1.8,3.53,2.2,6l2.45-2c-2.07-3-.62-6.34-1.35-9.45-1.45-4.6-4.65-8.53-5-13.55a2.79,2.79,0,0,0-.1-.39c-2.33-2.78-5.67-3.68-8.92-4.62-1.2-.35-2.6.07-3.88-.09a34.53,34.53,0,0,1-4-.95l-1.37,1.52c0,1.65.06,3.52,0,5.38-.12,2.77,1.14,4.69,3.34,6.27,1.71,1.23,3.07,3,4.82,4.12a22.2,22.2,0,0,1,4.31,3.81,16.54,16.54,0,0,1,4.07,7.36C317.29,178.17,318.6,179.28,319.75,180.42ZM430.8,318a8.49,8.49,0,0,1-1.15,1.63c-1.89,1.68-4.11,3.06-5.68,5a28.93,28.93,0,0,0-3.75,6.65c-1.08,2.43-1.6,5.09-2.62,7.57-.12.3.16.77.28,1.23,2.83-.69,4.28-3.09,6.34-4.62,2.23-1.67,3.69-4.25,6.07-5.38-.24-.91-.47-1.8-.87-3.31l12.88-12.87c-2.38-.52-5-1.17-7.66-1.62a5.87,5.87,0,0,0-2.38.47c-2.73.75-5.45,1.54-8.49,2.4-1.95,3-6.55,3.86-7.9,8.46.92,3.53-2.27,6.9-1.87,10.85-1.68,3.24-.43,6.58-.69,10.37,2.69-3.14,2.61-6.35,2.51-9.55l1.78-1.87a32,32,0,0,1,2.23-7.32c.45-1,.58-2.5,2.28-2.62a1.81,1.81,0,0,0,1.26-1c1.08-3.16,4.54-3.12,6.57-5A5,5,0,0,1,430.8,318ZM303.46,251.62c2.84-1.37,5.42-2.19,8.25-1.92s5.76-.51,9,.73c-.52-.88-.72-1.72-1.19-1.92-2-.87-3.3-2.57-4.8-4-1.86-1.8-3.48-3.91-5.56-5.4-1.48-1.06-3.53-2-4-3.49-.58-1.94-2.67-2-3.25-3.78-.41-1.22-1.78-1.74-3.25-.81,0,1.37-.58,3.28.11,4.13,1.57,1.92.27,4.06,1.15,6.05.81,1.82.46,4.15.63,6.34Zm143.72,80.54A42.28,42.28,0,0,0,436.23,339h4.15a12.56,12.56,0,0,0,1.21,1c2,1.16,4.37,1.38,6.4,2.32,3.67,1.69,6.94,4,8.62,7.93.47,1.1.88,2,2.33,1.85-1.21-3.3-.25-6.66-.61-9.81a6,6,0,0,0,1.65-5.43c-1.55-2.06-4.15-2-6.08-3.09C451.65,332.47,449,334.12,447.18,332.16Zm5.34-6.94a8,8,0,0,0-2.34,0c-1.25.45-2.37,1.31-3.63,1.66-5.58,1.54-10.24,4.71-14.88,8-2.59,1.85-5,3.93-7.61,5.72-4.19,2.91-7,7.09-10.52,9.82-.39,1.36-.64,2.23-1,3.45l2.4.95c2.35-2.87,4.39-5.46,6.54-7.95,2.3-2.65,5.27-4.7,6.75-7.18l7.46-4.76c3-.84,5-4,8.31-4.55C446.13,327.78,449.92,328,452.52,325.22ZM399.35,643.4c0-1.19.22-1.89,0-2.23-1.06-1.36-.85-2.9-.82-4.41a9.13,9.13,0,0,1,.38-3.29c.56-1.3-1.09-2.1-.42-3.34a5.55,5.55,0,0,0,.42-2c.35-2.82,1.7-5.5,1.23-8.71l-4.42-2.88c-2.19,2.35-3,5-2.15,7.71a12.53,12.53,0,0,1,.58,3.61c.09,2.86,0,5.72,0,8.49C396.14,638.32,395.76,641.74,399.35,643.4ZM380.17,305.21c-3.22-3-4.08-7.46-7.93-9.73a13.56,13.56,0,0,1-2.29,1.07,20.82,20.82,0,0,1-2.9.28c.57.58.86,1.13,1.19,1.15,2.58.16,3.61,2,4.84,3.92a62.52,62.52,0,0,0,4.41,5.56l4.62,1.11,3.64-1.23c-.51-1.38-1-2.62-1.57-4.21l-1.64,2.08ZM326.2,171a10.75,10.75,0,0,0,3.61-7.25c-.82-2.06-2.65-2.76-3.52-4.58-.67-1.41-2.72-2.15-4.19-3.22l-1.64.14a57.09,57.09,0,0,1,4.29,12.61A8.21,8.21,0,0,0,326.2,171ZM268.25,394.42a7.15,7.15,0,0,1-.67-6.14c.9-2,.4-3.77.74-5.52l-5.25-1.94-1.8,1.17C263.2,390.49,264.51,393,268.25,394.42ZM398.82,506.7c.21,1.13.81,2.48.45,2.81-1.81,1.67-.54,3.53.24,4.41,1.22,1.37.84,3,1.58,4.3.86,1.53.3,3.77,2.72,5-.44-3.63-.83-6.9-1.11-9.25-.57-3.09-3.22-4.59-2.05-7.82l4.52,7.39,1-.19c-.48-3.75-2.55-6.78-3.78-10.35C401.11,504.42,400.4,506.28,398.82,506.7ZM365.43,275.89c.55-1.25,2.78-.11,2.67-2.13l3.33-1.52v-5C366,267.1,362.7,269,362,272.5Zm36.66,221.47v4c3.22,3.29,4.5,7,6.47,10.41.37-3.55.46-3.71-.56-5.62-1.51-2.83-2-6.08-3.61-8.85-.28-.47-.6-.92-.9-1.37ZM417,478l.77-.39c-.86-4-3.56-7.22-4.78-10.79h-3.89c-.36.86-.65,1.53-1.07,2.52l3.75,1.28Zm79.41-118.1c3.26,2.07,5.95,3.8,8.67,5.49a9.58,9.58,0,0,0,1.62.64l.47-.61-5.73-7.06-4.19-.77ZM368.62,286.7l-3.94,1.46v2c1.87,1,2.29,3.91,4.9,4.5a4.23,4.23,0,0,1,.63-1.43,5.46,5.46,0,0,1,1.59-.75Zm50.19,186.94c.3-4.73-2.4-8.26-4.19-12.24l-1.34,1.34a6.36,6.36,0,0,0,1.74,5.35c1,1.14,1.71,2.45,2.55,3.68C418,472.39,418.4,473,418.81,473.64ZM342.08,261.9l2.15,3.66,6.44-3.45-.91-.92h-7.68Zm17.65-5.38c-2-1.67-3.48-2.93-5-4.08-.28-.2-.92.07-1.69.15,1.23,2.45,2.3,4.56,3.37,6.67h2Zm5.76,4.4-.06-.89c-.87-.26-2.09-1-2.55-.68-1.75,1.22-4.6,1-5.3,3.73l1.44,1.38Zm2.14,74.53c-1.49-2.84-4.2-3.4-6.07-5l-3,2.29C362.16,333,364.11,335.79,367.63,335.45Zm-15.69-62.4a2.42,2.42,0,0,0,3.09-1.3,13.85,13.85,0,0,0,.61-3.25l-6.34,1.66Zm21.33,1.84c-3.84.47-5.83,1.38-7.87,3.75l7.87-1.4Zm-25.93-6a6.44,6.44,0,0,0,6.2-3.93c-2.28-.33-2.28-.33-6.2,1.87Zm66.09,187.77a23.5,23.5,0,0,0,1.93,3,13.88,13.88,0,0,0,3.61,3.18l-3.4-8.34Zm6.6,97.59c-1.87-2.55-3.86-4.62-6.88-5.49a29.34,29.34,0,0,0,4.71,5.49Zm-9.71,42.54c1.52-2,1.22-4.34,1.08-7.47-.9,1.83-1.45,3-2,4l-3.51.39Zm-53.27-328.2c3.65-1.31,7.58-1.69,10.8-3.92C363.73,264.58,360.34,266.56,357.05,268.55Zm-45.44,17-5.92-1.18v2.52h5.92Zm-10-7.89c3.67-.48,3.27-3.52,5.43-4.62l-2.07-1.81Zm73.65,2.92c-2.7-1.42-4.82.41-7.21.6.11.59.17,1,.25,1.43H372Zm-69.83,1.08a6,6,0,0,0,1.51.1c.73-2.05,3-3.39,3-6C307.77,276.6,307.77,276.6,305.4,281.66Zm73.94,19.62-.37.93,2.22.85,2.38-.74v-2.19a4.41,4.41,0,0,0-1.37-.06C381.23,300.41,380.29,300.87,379.34,301.28Zm14.28,70.13,3.94-6.85c-1,0-2.08.26-2.23.79C394.78,367.29,392.5,368.77,393.62,371.41ZM362.26,280.1l-.44-.9c-1.41.15-3-.49-4,1.17l2.39,2Zm44.13,208a9.18,9.18,0,0,0,1.52,1.47c.59.37.71,1.58,2.18,1.05-1-1.85-2-3.57-3-5.28-.08-.13-.38-.13-.69-.23Zm-26-132.28a5.9,5.9,0,0,0-5.23-3.39c1.48,1.42,2.48,3.33,4.36,4.23Zm21.19,170.53-2.65,3.29c.93.33,1.44.49,1.94.69s1.09.47,2.05.89C402.43,529.35,402.08,528.09,401.59,526.31Zm-36.9-243.62a9.68,9.68,0,0,1-1.65.85,12,12,0,0,1-1.88.21c0,.85,0,1.42,0,2,0,.1.19.2.29.3C364.25,285.86,364.25,285.86,364.69,282.69ZM357,325.35l-.19.76,5.3,1.92-1.32-2.68ZM382.78,294c-2-.14-3.32.22-3.42,2.43h3.42Zm-86-8.84c-1.66.29-2.51,1-2.42,2.49,0,.66.08,1.31.1,1.64l2.58-1.76C296.9,286.57,296.83,285.92,296.75,285.17Zm6.73-1.81c-.74-.35-1.16-.73-1.39-.63-1.87.75-2.21,2.39-2.1,4.3Zm71,7.05c1.16-.88,2.19-1.67,3.2-2.42l-.57-1.2-4,2.29Zm49.67,254.1-4.58-2.67c-.15.81-.24,1.3-.33,1.74A26.51,26.51,0,0,0,424.19,544.51ZM359.52,277c-3.22-.2-4.61.35-4.21,1.16l1,1c.28-.23.54-.49.84-.69C357.72,278.08,358.31,277.74,359.52,277Zm45.77,259.5-2.09,2,2.09,1ZM317,282.77v2.45h1.44v-2.45Zm-4.77-3.37c-.61,1.05-2.72,1.14-2.1,3.66C311.06,281.62,312.6,281.31,312.27,279.4Zm61.85,5.11c-1.47-.24-2.65-.21-3.36,1.57C372.23,286.32,373.41,286.29,374.12,284.51ZM417.8,516.13l2.39,2.39A2.23,2.23,0,0,0,417.8,516.13Zm4.39-95.19c-.66-.86-1-1.31-1.32-1.71s-.79-.76-1.5-1.43C419.21,420,420.15,420.51,422.19,420.94Zm-40.06,78.59.75,0-.21-3.17-.54,0ZM356.24,274.27c-1.94.1-1.94.1-2.6,1.93Zm38.92,257.66,0,.78,2.3-.32,0-.46Zm9.54-121.8.77-.05c-.11-.76-.21-1.53-.32-2.3l-.45,0Zm.57,2.91-.74,0,.32,1.45.42-.06ZM345.38,250.43l-.05-.74-1.45.31.05.43Zm75,274.56,0,.75,1.45-.32-.05-.43Zm-65.4-199.92-.09-.75-1.41.34.07.41ZM394.85,523l-.05-.74-1.45.31.06.43Zm16.81,12.45,0,.74,1.45-.31,0-.43Zm-31.41,35.15v-.29h-.87v.29ZM388.06,594v-.29h-.87V594Zm-13.59-28.35h.28v-.87h-.28Zm4.91-1.16v-.29h-.86v.29Zm30.38-29.8V535h.87v-.29Zm-35.58,18.23v.29H375v-.29Zm27.48-142.63h-.29v.87h.29ZM314.29,282.11v.29h.87v-.29Zm97.5,227.11h.29v-.87h-.29ZM516.23,166.39h-.29v.87h.29Zm-101,373.21h.29v-.87h-.29Zm-3.76-29.22v.29h.86v-.29ZM364.92,343.45h.29v-.87h-.29ZM408,522v-.29h-.87V522Zm.28-56.12h.29V465h-.29Zm-4.62,58.44v.29h.86v-.29ZM386,485.79h-.29v.87H386Zm38.19-134.53h-.29v.87h.29Zm-6.66,94v.28h.87v-.28Zm-9.83-37.62h-.29v.87h.29Z"/><path d="M334.25,210.65c3.1,2.43,3.85,6.38,6.07,9.38a14.51,14.51,0,0,0,.82,1.39c4.37,4.7,8.48,9.7,13.24,14,6.7,6,13.07,12.38,19.43,18.75a15.79,15.79,0,0,1,2.16,3c2.17,3.58,4.14,7.29,6.5,10.74,1.7,2.49,2.17,5.5,3.86,8,.39.58.83,1.12,1.31,1.76l1.26-3.84c-1.84-3.2-2.19-7.47-5.13-10.67-.13-4.64.15-9.64-5.36-11.72-1.29-1.76-2.45-3.45-3.72-5a42.44,42.44,0,0,0-4.95-5.72,30.13,30.13,0,0,1-4.81-4.9c-1.41-1.93-3.82-3-4.64-5.46-3.22-1-3.81-4.68-6.33-6.41-.4-2-2.09-2.75-3.12-3.23-1.79-3.36-3-6.42-4.89-9s-3.53-5.28-5.62-7.72a15,15,0,0,1-3.58-8c-.39-3.42-1.58-6.75-2.45-10.23l1.33-.2,4.7,10.25a55.29,55.29,0,0,0,7.24,11.3,97.66,97.66,0,0,1,7.06,10.53c2.05,3.43,4.26,6.58,7.79,9,2.67,1.8,4.54,4.9,6.51,7.61a20,20,0,0,0,7.69,6.28,5.48,5.48,0,0,0,.09-1.57c-.81-2.27-1.79-4.48-2.5-6.77s-.94-4.82-1.84-7.05c-1.05-2.62-.64-5.26-.81-7.44-.69-1.47-1.55-2.53-1.66-3.66-.37-3.79-2.79-6.43-4.83-9.29-.41-.58-1.19-.94-1.49-1.56a27.25,27.25,0,0,0-9.35-10.38c-.25-.18-.22-.75-.32-1.11h-1.85c-.15-.22-.39-.43-.44-.68A6.61,6.61,0,0,0,348,186c-2.46-1.09-3.51-3.2-4.67-5.07s-1.14-4.15-1.82-7c-.22-.47-.76-1.65-1.31-2.82l.58-.38a50.14,50.14,0,0,0,4,4.86c1.56,1.48,2.54,3.43,4.45,4.67s3.07,3,4.67,4.5,2.85,3.58,4.76,4.27c3.65,4.75,5.94,10.2,11.12,14.37v-5.69c0-1.73.44-3.63-.12-5.16a15.07,15.07,0,0,1-.75-5.32c0-1.74.49-3.67-.13-5.15a13.91,13.91,0,0,1-.75-4.88c-.75-.7-.84.37-1.26.42a18.13,18.13,0,0,1-2,0c-.16-5.58-3.68-9.62-6.51-14-2.74.72-4.38-1.23-5.74-1.6-4-3.84-5.46-8.53-7.78-12.74,1.33-.93,2,.32,2.37,1,2.66,5.4,8.06,7.19,13.09,9.86a8.73,8.73,0,0,0-.88-2.81,8.06,8.06,0,0,1-1.67-6.1c-3.3-3-4.29-7.06-5.15-11a27.29,27.29,0,0,0-1.65-5.41c-1.33-3-2.71-5.91-2.8-9.26,0-.35-.43-.68-.59-1-.06-.16.08-.4.13-.61l.88-.06c1.88,5.13,4.12,10.1,6,15.27,1.77,5,4.69,9.61,6.08,15h2.13c.45-7.38,5.53-12.16,10.63-17.83-.13,1.46,0,2.34-.3,3-1,2-2.23,4-3.32,6a8.27,8.27,0,0,0-.73,1.86c-1,3.78-2,7.58-3,11.36a5.84,5.84,0,0,1-.53,1.13c1.72,3.57,3.29,6.83,4.82,10,1.53-2.56,3.1-5.34,4.8-8,2.59-4.07,3.23-6.52,4.43-10.77a24,24,0,0,0,.69-6.19,9.61,9.61,0,0,1,.87-4.42,7.89,7.89,0,0,0,.86-2.67,19.76,19.76,0,0,0,0-3.44c-.11-2.06-2.74-2.81-2.56-5,1.11-.38,2-1.44,3.43-.57a10.8,10.8,0,0,0,3.21.75c.81-3.88,1.6-7.47,2.22-11.11a39.37,39.37,0,0,0,.64-7.92c-.06-2,.79-3.42,1.62-5a2.4,2.4,0,0,1-.43-2.87c1.12-2.44,1.7-5.13,3.66-7.18A13.05,13.05,0,0,0,395.32,92s.61,0,.76-.25c1.57-2.52,4.61-3.55,6-6.43,1.05-2.21,3.19-3.88,4.77-5.84a96,96,0,0,0,6.08-7.91c1.07-1.64,1.5-3.7,2.2-5.53l2.46-1.25c.84.49,2.33.84,2.84,1.74,2.33,4.1,6,7.45,7.12,12.22.25,1.08.24,2.21.47,3.29.19.91.6,1.78.83,2.68a29.09,29.09,0,0,1,.85,4c.15,1.29-.08,2.62.06,3.9.17,1.49.62,2.94.82,4.42s0,2.65.76,4a4.65,4.65,0,0,1-.07,4.15c-1.41,1.85-.25,3.83-1,5.71s-.43,3.88-.53,5.85a3.59,3.59,0,0,0,.19,1.64c1,2.06,2.27,3.88,2.53,6.37.23,2.17,1.6,4.22,2.48,6.31a4.32,4.32,0,0,0,.65.76c2.8-1.34,4.42-4.16,7-5.9s5.26-3.42,7.94-5a60.65,60.65,0,0,1,7.9-4c2.73-1.11,5.33-2.49,8-3.7,2.24-1.73,4.24-3.9,7.3-4.3,1.83-5.71,7.41-7.89,11-11.91,3.51-.24,7-2.38,10.77.38l3.32,6.7c-.1,2.68-2.5,4.65-2.32,7.5,0,.44-.59.89-.81,1.38-1.75,3.9-3.39,7.86-5.25,11.71a50,50,0,0,0-3.4,10.73c-1.32,5.8-2,11.74-4.36,17.29-.14.34,0,.82.07,1.27,2,.87,3.33-1,5.08-1.07a3.48,3.48,0,0,0,2.29-.63,2.66,2.66,0,0,1,2.78-.61c.83.19,1-1.44,2.1-.47.38.34,1.62-.35,2.47-.44a26.07,26.07,0,0,1,2.84,0l-1.46,3.34-8.2,1.34c-1.39,2.5-4.67,2.14-7.3,3-2.2.73-4.4,1-6.35,2.58-1.52,1.2-3.62,1.58-5.42,2.61a42.27,42.27,0,0,0-9.78,7.55,15.37,15.37,0,0,1-1.3,8.21h-1.94v3.4l1.34-.76c.73,3-.58,5.76-1.09,8.54-.92,5-3.28,9.7-4,14.83-.28,1.95-1.24,3.82-1.79,5.77a24.12,24.12,0,0,0-.74,6.62c0,1.15,0,2.31,0,3.47,0,4.5-.44,9.05,1.48,13.9,2.46.19,5.35.56,8.25.58,1.61,0,3.1-1.05,4.85-.86a6.61,6.61,0,0,0,4.46-.74c.73-.46,2,0,3-.11a10.14,10.14,0,0,0,2-.67l.64.58,5.11-.93.56.56c-.67.73-1.35,1.45-2,2.19H478l-1.75,1.66c-1.87.46-3.63-.28-5.48.85-1.39.86-3.53-.36-5.26.92-.66.48-2,.2-3,.05-2.58-.39-4.88,1-7.37,1.11-.64,0-1.28.66-1.89.61-2.88-.22-4.84,1.37-6.4,3.38-2.1,2.68-3.92,5.57-6.17,8.81,2.74,0,5.22.36,7.54-.1a21.79,21.79,0,0,1,6.6-.75c2.35.27,4.47-1.89,7.21-.41-.42.47-.7,1-1.15,1.23-1.82.85-3.68,1.58-5.84,2.48-5.45,1-11.28,2-17.4,2.88-2.4,4.45-6.18,8.3-8.46,13.92a49.66,49.66,0,0,0,8.67-2.4c2.52-1,5.13-2.71,8.78-1.81-3.26,1.88-5.87,3.55-9.32,4.24-3,.61-5.74,2.79-8.6,4.28l-1-.81c-1.11.71-2.5,1.22-3.28,2.21a20,20,0,0,0-3.28,5.55,38.18,38.18,0,0,1-2.87,5.76c-2.91,5.2-5.56,10.51-5.92,16.65a15.36,15.36,0,0,1-.88,4.4c-1.66,4.46-2,9.24-3.32,13.79a28.53,28.53,0,0,0-.89,9.58c.27,4.59-1.56,9-.9,13.57l-2,1.38c-.31-.25-.52-.35-.51-.43.17-4.26.71-8.48,1.21-12.83a28,28,0,0,1-.5-3.81c0-14.46,0-28.93-.06-43.39,0-1.48.66-3.11-.78-4.47a2.19,2.19,0,0,1,0-2.08c1.16-1.68.87-3.53.77-5.31s.74-3.72-.65-5.35c1-1.17.65-2.58.69-3.91.13-4-1.25-7.77-.93-11.8.31-3.88.09-7.8,0-11.7,0-.49-.45-1-.69-1.43.21-.39.74-.89.68-1.32-.35-2.77.78-5.6-.7-8.39-.49-.92.68-2.59.68-3.91s-1.2-3.17-.67-3.89c1.62-2.19-.2-4-.15-5.88.08-3.33,0-6.66,0-10,0-1.74.09-3.48,0-5.21a14.48,14.48,0,0,0-.84-2.86l.88-1.19c-.43-1.26-.85-2.53-1.27-3.79-.25,4.05-1.13,8.11.25,12.31a5,5,0,0,0-.37,4.9,2.8,2.8,0,0,1-.05,3c-.5.88-.07,2.25-.33,3.33-.45,1.81.85,3.44.15,5.4-.59,1.68-.12,3.72-.12,5.6v23.86c0,2-.05,4.05,0,6.08.06,1.79-.06,3.48-1.47,4.85-.26-1.32-.52-2.62-.82-4.16l.55-.62c-2-5.6-3.65-11.28-7.57-16.61-2.48-.33-2.35-3.17-3.23-5.36s-1.78-4.13-2.65-6.17l-1.1.11a61.35,61.35,0,0,0-1,7.74c0,1.36,1,2.73,1.66,4.45-1.19,1.66-2.21,3.77-1.75,6,.66,1.17,1.26,2.09,1.72,3.06.9,1.94,1.34,4,2.38,6,1.38,2.57,2.71,5.24,2.92,8.35.11,1.67,1.39,3.1,1.82,4.89.53,2.24.3,4.48.77,6.61,1,4.35.29,8.8,1,13.08.46,2.95.21,5.92.8,8.75.89,4.23.69,8.45.81,12.68a1.22,1.22,0,0,0,.48.84c-.2,2.57-1,4.84-.38,6.64,1,3.11.46,6.17.74,9.23.2,2.2-.65,4.54.84,6.6a.92.92,0,0,1,0,.84c-1.33,2.07-.72,4.38-.84,6.59-.09,1.43-1.05,2.26-1.52,3.42l-.8-.29c-.09-.49-.23-1-.29-1.47-.3-2.62-.63-5.25-.85-7.88a13,13,0,0,1,0-3.89c.22-1,1.55-1.83,0-2.8,2.19-2.37-.16-4.7-.09-7.06.08-2.6.58-5.37-.11-7.77-1-3.4-.66-6.73-.7-10.09a25.49,25.49,0,0,0-1.6-9.77c-.73-1.75.45-4-1-5.64.42-3-2.16-4.91-2.69-7.56-1.89-1-2-3.05-2.38-4.63a18.19,18.19,0,0,0-2-4.41c-.74-1.43-.84-3.05-2-4.44-1.4-1.68-2-4-2.86-6.15a11,11,0,0,0-3.85-4.92c-3.32-2.5-6-5.84-9-8.75-1.09-1.06-2.37-2-3.51-2.91-2.2-1.83-3.81-4.4-5.59-6.71a40.68,40.68,0,0,0-6.92-7.45c-1.79-1.42-2.94-3.65-4.37-5.51a9,9,0,0,0-1.24-1.65c-3-2.45-4.92-5.72-7-8.85A11.78,11.78,0,0,1,334.25,210.65Zm76.68-85.74c-.42,2.14-.7,4-1.19,5.89-.92,3.47-2.29,6.85-1.74,10.56,0,.21-.29.45-.38.7-1.38,4.07-1.44,8.37-2.17,12.55a3.76,3.76,0,0,0,.28,1.36c.46,0,.68.06.73,0,2.32-3.17,4.29-6.57,6.73-9.67,3.53-4.47,5.67-9.74,7.87-15,.08-.19.33-.31.44-.39l1.31,1.12c-1.37,1.33-2.61,2.62-2.64,4.63-.06,4.6-.15,5.48-1.85,8.49a28.53,28.53,0,0,1-6.42,8.19c-.94.78-1.61,1.64-1.25,3l-5.09,5v29.33c3.87-2.21,6.38-5.73,9.65-8.32s5.93-6,8.62-9.36,4.59-6.86,7.35-10c.08.34.36.8.25,1.11-1.15,3.14-1.92,6.54-3.95,9.17a27.54,27.54,0,0,0-3.93,6.66,6.87,6.87,0,0,1-1.52,2.39c-5.49,5.24-10.35,11.13-16.81,16,.57,4,1.47,8.29,1.07,12.68,1.95,4.14.34,8.39,0,12.26,2.5,1.56,3.15-1.06,4.74-1.51s2.87-2.11,4.29-3.22,3.41-1.84,3.76-3.12c.6-2.27,2.87-2,3.84-3.56s1.85-3.29,3.14-3.64c2-.55,1.52-3.19,3.73-3.56-1.2,3.92-2.43,7.42-5.44,10.14a34.31,34.31,0,0,0-5.52,6.38c-2.86,4.31-7.07,6.51-11.55,8.16-.21,1.34-1,3-.47,3.79,1.13,1.81-.75,2.83-.57,4.31a33.8,33.8,0,0,1,0,3.9v3.9c0,1.45.47,3.14-.12,4.28-.69,1.33.1,2.19.13,3.25.18,5.53-.51,11.08.8,16.58.63,2.62-.67,5.26-.72,7.87-.11,4.71-.36,9.41.69,14.13s-1.13,9.25-.77,13.94a3,3,0,0,0,.35.8l.8,0c1.76-2.41,1.4-5,1.44-7.47,0-.44-.18-1,0-1.28,1.41-1.62.62-3.54.85-5.31a49,49,0,0,0,.81-5.71,39,39,0,0,1,1.8-10.13c.64-2.32,1.4-4.6,2.11-6.9.48-1,.1-2.35.55-3.28,1.78-3.68,1.75-7.55,1.67-10.49,1.82-4.91,3.27-9,3.67-13.34l1.53-1.53V238l5.72-6.8c1.18-3.86,4.36-6.25,5.31-9.92,0,0-.4-.22-.4-.43,0-2.92-.89-5.87.48-8.75a3,3,0,0,0,.11-2.47c-1.16-1.43-.59-3-.83-4.47a14.84,14.84,0,0,0-.86-2.54c1.37-1.41,2.65-2.75,3.94-4.09,1,1.37,2.34.77,3.36.79,1.35-1.89,2.63-3.66,3.88-5.45a11.14,11.14,0,0,1,1.57-2.36,17.71,17.71,0,0,0,4.5-6.41,20.88,20.88,0,0,1,2.17-3.89c.48-.62.38-1.68.66-3.11-2,1-3.14,1.7-3.63,3.43a13.33,13.33,0,0,1-2.07,3.9c-1.82,2.59-4.18,4.9-5.54,7.7-.9,1.86-2.33,1.72-3.34,2.74l-.71-1.92c-.45,1.28-.54,2.38-1.13,3s-1.63.59-2.33.81c-1.44-1.89-2.62-3.44-3.72-4.9-.27-.94-.52-1.82-.89-3.15l1.69-1.08-1.68-4.43,2-4a2.32,2.32,0,0,0,3-1.5c.76-1.57,1.48-3.16,2.37-4.65a32.32,32.32,0,0,0,2.84-7.95c.44-5.79-1.21-11.15-3.51-16.34a38.18,38.18,0,0,0-2.58-4.2c-.15-2.45.13-5.34-.73-8.3-.63-2.18-.9-4.5-1.67-6.7-1.37-3.92-2.73-7.84-4-11.8a21,21,0,0,1-1.32-5.92c0-1.84.76-3.69,1.27-5.51s.77-3.81-.41-5.64c1.57-1.31,1.09-3.42.61-4.72-.67-1.82-.11-3.79-.84-5.27-.81-1.66-.46-3.28-.79-4.6a7.9,7.9,0,0,1-.8-1.26c-1.21-3.41-2.38-6.83-3.6-10.23-.07-.17-.46-.23-1.09-.52L418.18,77l-.5-.5c-.11,1.33-.21,2.65-.39,4.79l-.88-2.45L414,78.66c-.2.31-.67,1-1.17,1.73-1.52,2.12-3,4.3-4.63,6.31-1.42,1.74-3.19,3.13-4.31,5.17a27.11,27.11,0,0,1-4,5.69,19.55,19.55,0,0,0-3.62,5.48,31.74,31.74,0,0,0-1.22,3c-.95,2.71-2.13,5.33-1.89,8.37a10.17,10.17,0,0,1-.64,4.91c-1,2.35-.83,5.15-1.11,7.31-1.49,2.28-2.93,4.15-4,6.2s-1.73,4.19-2.82,6.93c.2,2.24-1,4.9-1.59,7.69a35.21,35.21,0,0,1-2.43,7.81c-.45,2.15-.4,4.3-1.35,5.83s0,3.73-1.61,5c.42,2.11-1.52,3.4-1.85,5.34-.3,1.78-1.51,3.41-2.17,4.79-.43,3-1.13,5.79-1.12,8.55,0,4.51.51,9,.8,13.52,0,.15-.05.31,0,.43,1.9,4.22,1.19,8.92,2.5,13.28.5,1.64.43,3.5.88,5.27s-.26,3.93,1,5.7c-.34,4.37,1.81,8.36,1.85,12.73,0,2.07,1.22,4.13,1.89,6.2l.71-.22-.9-3.43c1.46-1.93,0-4.59.94-6.4,1.13-2.09.43-4.28,1.4-6.39.87-1.91.47-4.59.1-6.84a47.08,47.08,0,0,1-.84-6.6c0-2.2.05-4.71-1-6.5-1.18-2.09.32-4.61-1.72-6.11l1-1.51a25.14,25.14,0,0,0-.9-2.74c-.92-2-.79-4.25-1.38-6.36a28.85,28.85,0,0,1,.31-17.53,153.8,153.8,0,0,1,6.57-16.82c.8-1.69,2.09-3.38,2.19-5.12.11-1.89,1.49-3,1.73-4.5a13.63,13.63,0,0,1,2.08-4.79,29.49,29.49,0,0,0,2-4c1-2.35,1.94-4.69,3-7.24l-.84-1.13c1.77-3.94.35-8.14.93-11.69,1.13-2.24,2-4.08,3.41-6.82,0,4.74.12,8.47,0,12.19s-.57,7.26-.87,10.79c-2.2,2.72-2.11,6.26-3.58,9-1.39,2.6.75,4.48.25,6.69,2.6,3.19,3.27,7.37,5.59,10.74h1.1c.05-1.07.13-2.17.14-3.27,0-1.88-.47-3.94.15-5.58a16.14,16.14,0,0,0,.75-4c.17-1.35.83-2.67.77-4-.07-1.62.82-3,.86-4.42a14.06,14.06,0,0,1,1-4.41,28.82,28.82,0,0,0,1-4.4,54.39,54.39,0,0,1,1.52-7.14c1.11-3.52,1.53-7.25,2.31-11.23a22.78,22.78,0,0,0,2.12-7.78,20.77,20.77,0,0,1,.24-3.38A25.11,25.11,0,0,0,415,91.77a17.25,17.25,0,0,1,.84-4c.35-1.27.81-2.5,1.22-3.74A146.48,146.48,0,0,1,416.7,102a1.84,1.84,0,0,1-.2.78c-2.57,4.73-2.15,10.1-3.19,15.16A24.57,24.57,0,0,1,410.93,124.91ZM438.4,223.8v2c.06,4.53-1.43,9-.88,13.53.11,1,.39,2.35-.11,2.94-1.23,1.46-.49,3-.75,4.5s-.63,2.93-.84,4.41a10.33,10.33,0,0,0,.17,2.18c.68-.26,1.18-.29,1.42-.56,2.58-2.82,5.19-5.62,7.64-8.55a6.66,6.66,0,0,0,1.14-3c.65-3.5,1.15-7,1.78-10.54.16-.92.78-1.79.81-2.69.1-3.32-.1-6.65.08-10s.66-6.39,1.08-10.21l1.12-.79c.65-2.66,1.19-4.77,1.68-6.89s.77-4,1.31-6,2.6-3.66,1.29-6.36c-.62.37-1.35.58-1.67,1.06-.59.88-.87,2-1.39,2.88-2.56,4.5-5,9.16-10.22,11.19a6.91,6.91,0,0,0-3.59,3.69c-1.14,2.13-2.16,4.32-3.58,7.16-.08,1.68.3,4.17-.72,6.67-.43,1,.86,2.83.37,3.76-.76,1.46-.21,2.8-.48,4.15s-.67,2.64-.84,4a34.87,34.87,0,0,1-1.57,6.29,117,117,0,0,1-5.51,13.05l-2.53,1.73c.66,3.73-1.73,6.55-2.75,9.74-.72,2.28-2.83,4.08-2.42,6.8-1.78.92,0,3.12-1.48,4.16-.14,3.41-1.95,6.7-.64,10.91,2.61-4.75,4.94-9,7.28-13.23-1.06-2.26-1.15-6.14.1-9.87v8.6c3.27-2,4.14-5.39,6-8,1-1.43,2.29-2.71,2.62-4.55.23-1.34.7-2.64.82-4,.15-1.58,0-3.18,0-4.77,0-3.09-.29-6.2.85-9.19a7.21,7.21,0,0,0,.82-3.1C434.28,232.15,436.85,228.15,438.4,223.8Zm43-90.45c-3.36,5-8.88,6.41-14.68,8.71l-8,1.14-2.87,4.59,2.41,1.24c2.29,0,4.91-.16,7.49.05,2.32.18,4.32-.71,6.44-1.26.85-.21,1.72-.35,2.58-.53a4.67,4.67,0,0,1-1.37,1.94,8.93,8.93,0,0,1-7.77,3.34c-4.6-.26-9.22-.07-14.08-.07a32,32,0,0,1-6.46,8.62c-.79.76-1.07,2.06-1.79,3.51,7,.2,13-1.82,19.86-3.53-2.15,3.26-5.4,4.08-7.77,6.12-3,.3-6,.57-9.08.94-.49.06-.89.69-1.39.81a6.13,6.13,0,0,0-4.12,2.52,62.87,62.87,0,0,0-3.21,6.91c-.1.24.22.65.3.88a12.05,12.05,0,0,1,7-1.59c.7-.7,1.16-1.59,1.73-1.66,3.68-.48,6.73-2.74,10.26-3.51,1.27-.28,2-.61,2.36-1.93,1.27-5.06,5.6-7.39,9.29-10.28,3.31-.22,5.46-2.64,8-3.92v-1.71c1.54-1.64,3.7-3.09,3.45-5.82-.21-2.17.71-4,1.38-6a72.82,72.82,0,0,0,3.95-16.64c1-2.08,2.39-3.73,1.15-6.14-1.91.9-2.88,2.59-4,3.43-4.25,1-7.36,3.58-10.71,4.8a20.2,20.2,0,0,1-1.54,2.19c-1.59,1.67-3.27,3.27-4.88,4.93-.15.16-.08.54-.13.88l2.25,1.24c1.51-1.35,3.78.08,4.84-.85,1.47-1.3,3.3-.05,4.69-1.49C478.1,134.21,479.92,134,481.39,133.35ZM466.26,117.5c-1,.71-2.49,2.42-4.22,2.77-4.72.94-8.69,3.49-13,5.37-6.49,2.86-11.43,7.73-16,12.87,1.31,1.77,2.25,3.55,3.65,4.82,2.05,1.85,3,4.17,4,6.6.62,1.48-.11,2.33-.59,3.39,1,1.78.89,4.18,3.41,5.27.84-1.37,2.24-2.78,2.58-4.41a71.13,71.13,0,0,0,.95-9.58c.11-1.57,0-3.16,0-4.25,1.39-2.52,2.54-4.66,3.77-6.74.12-.21.73-.12,1.58-.23-.36,2.2-.83,4.17-1,6.17-.16,2.25,0,4.53,0,7.68l3.52-4.74c-.59-3.51.59-6.63,2.5-9.65.91-1.43,1-3.35,1.85-4.85s1.3-3.29,3.43-4.11c-.07,3.63-2.6,6.82-1.45,10.49,2.85-1.6,6.61-5.37,7.75-7.72.24-.48.39-1,.63-1.47,1.26-2.51,1.09-5.58,3.29-7.77.63-.63.5-2,.76-3.28Zm-72.5,27.7a20.83,20.83,0,0,0-1.34,2.18c-1,2.2-1.51,4.71-2.93,6.55-1.57,2-1.79,4.52-3.17,6.52-1.2,1.75-.92,3.92-1.67,5.81a3.26,3.26,0,0,0,.18,2.47c2.79,5.19,3.76,11.16,7.21,16.12a40.42,40.42,0,0,0,5.79,6.26c.6-1.57,1.05-2.79,1.38-3.66-.3-1.24-.91-2.26-.66-3,.69-2,.21-4.36.95-6.1,1.45-3.44.52-6.57-.27-9.72-.22-.86-.85-1.7-.75-2.7a10.78,10.78,0,0,0-.86-5.28,23.35,23.35,0,0,1-1-4.38c-.53-2.75-.42-5.71-2.11-8.21A10.92,10.92,0,0,1,393.76,145.2Zm-11.18,25c-1,2.87-1.89,5.08-1.44,7.51.19,1.05.69,2.06.81,3.12.15,1.28-.43,2.87.14,3.84,1.12,1.9.28,3.93.9,5.72,1.77,5,2.41,10.32,3.36,15.54a7.25,7.25,0,0,0,.85,1.81c1.15,2.27,2.05,4.73,3.54,6.75s3.18,4.07,6,4.69c0-1.78-.11-3.38,0-4.95s.75-3.23.8-4.85c.12-3.76,0-7.52,0-10.68-1.63-2.64-3-4.84-4.33-7.06-.47-.8-.73-2.36-1.22-2.42-2-.23-1.88-2-2.16-3a10.11,10.11,0,0,0-2-4,11.71,11.71,0,0,1-2.33-3.79,54.51,54.51,0,0,1-1.18-6.62Zm102.88-51.48,1.92,1c1.53-3.08,3-5.92,4.35-8.83.61-1.33,1.63-3.1,1.2-4.14-.84-2-.46-4.1-.84-6.19h-2.33c-5.82,2.72-9.26,7.52-13.91,10.64v9c.38.1.69.27.9.19a5,5,0,0,0,1.06-.66C480.56,121.52,482.82,119.36,485.46,118.67Zm-100.18,111c2.07,2.89,4,5,4.56,8,.36,2,2.56,3,3.28,4.69.94,2.15,2.6,2.77,4.78,4.24-.36-2.74-.63-4.76-.93-7.05l.39-.54c-.25-1.84-.11-3.34-.7-4.45-.73-1.35,1.36-1.91.43-3.39-.48-.77.42-2.42.68-3.62-1.58-1.37-2.95-2.54-4.52-3.89,0,.12.1-.21,0-.44-1.67-3.37-4.54-6.06-5.53-9.83,0-.11-.73-.05-1-.07-1.75,2.72,1.48,5.11,0,8.08C385.43,223.86,385.67,227.07,385.28,229.71Zm46.17-44.1c.5,1,.87,1.68,1.23,2.36h1.4c1.41-1.18,2.41-2,3.34-2.83s2-2,3.26-3.25l-2.92-1.57-5.12,2.05ZM445.27,178a17.35,17.35,0,0,0-1.64,2.26c-1.69,3.6-3.42,7.15-6.64,9.71-.29.23-.24.9-.34,1.37l.6.32,10.27-11.55Zm6.78,7.66a69.36,69.36,0,0,0-4.36,6.35c-1.61,2.31-3.4,4.36-4.17,7.56C448.66,196,450.12,190.68,452.05,185.68ZM401.23,194H402c-.1-.78-.21-1.56-.31-2.33l-.46,0Zm57.14-9.67V184h-.87v.29Zm-57.29,4.91v.29H402v-.29Z"/><path d="M294.91,582.85c.46-.47.77-.77,1.13-1.13l-1.25-1.33a15.12,15.12,0,0,0-2.42,0c-3.6.59-6.7-1.23-10-2a8.85,8.85,0,0,1-2.41-1.5,20.67,20.67,0,0,0-3.74-2.47c-1.39-.53-2.09-2.6-4-1.81l-8.2-5.16c.26-4-1.55-6.89-3.17-9.86-.86-1.63.4-3.65-1-5.22l5.93-10.15c-2.23-2.53-.63-5.21.32-7.62a16.09,16.09,0,0,0,1.31-7.2c1.53-3.62,4-5.67,7.85-5.11l3.6-2.34c1.18-.77,2.93.42,3.87-1.15l4,1c2.88,1.14,3,5.28,6.4,6.15,1.48,3.32,3.55,6.52,2.72,10.7l2.71,1.8c2.77-2.28,3.49-6.28,5.21-9.81-1.44-3.5-.28-7.73-3.18-11.82,2.72.49,4.59.72,6.4,1.18s3.58,1.71,5.13.14c2.71.55,5.22,1.39,7.76,1.48s5,1.44,8.3,2.25l3.87,4.7c.55-1.43,1.11-2.9,1.89-5,.89,1.32,1.89,2.12,1.93,3,.12,2.61,1.5,4.64,2.72,6.71a16.37,16.37,0,0,1,2.61,8c0,1.33,1.41,2.57.79,4-1.42,3.2-1.24,6.83-3.3,9.95-1.3,2-3.1,3.27-4.48,5a14.17,14.17,0,0,1-2,1.74c.68,2.93,3.1,4.46,4.35,6.71l3.84,6.93a11.47,11.47,0,0,1-4.86,4,12.36,12.36,0,0,0-8.26-1.4,10.41,10.41,0,0,1-2.16,7.73c-1.23-1.78-3.44-2.64-4.05-5l-3.86-1.93c-2.53,1.8-3.27,4.54-3,7.6l-5.83-1.1c-.12.92-.2,1.58-.3,2.44-4,4.67-9.24,7.8-16.54,10a21.6,21.6,0,0,1-12.13-3.55l-3.74.76c-2.21-1.83-5.51-2.19-8.51-3.33l-3.85-1.49c-2.6,2.27-5.33-.84-8.17-.3s-5.81.7-9,1.05l-4.69,2.44h-3.16c-2.38-3.43-1.34-7.06-.24-11.15,1.8-.54,4-1.18,6.11-1.84.89-.27,1.8-.53,2.67-.88.49-.2,1-.87,1.37-.8,2.92.48,5.24-1.6,8-1.74a6.07,6.07,0,0,1,2,.55l6-.82,2.19,2.72v1.71h-4.83c-1.3-1.25-1.32-1.21-3.22-1.63l-2.85,3.29a3.29,3.29,0,0,0,3.74-.66,46.47,46.47,0,0,0,6.64,1.87,30.56,30.56,0,0,1,8.35,2.8,15.5,15.5,0,0,0,3.15.65l-2.26-4.4h-3.34v-1.53c4.29,1,8.37,2.48,12.49,3.88a9.17,9.17,0,0,0,6.67-.29C292.1,582.86,293.49,583,294.91,582.85Zm38.9-35-.43-.46-1.72.13c0,.61.07,1.07.11,1.65.81-.52,1.43-.92,1.52-1.83l.17.17.71-.6-.27-.28C333.7,546.86,333.49,547.1,333.81,547.84Zm-18.73,5.74.17-.17-.61-.71-.27.27a2.13,2.13,0,0,0,1.43.51h-.39v3.4h.39A5.41,5.41,0,0,0,315.08,553.58Zm-32.26,33.86c.94,1.39,2.27.52,3.33.67a3.72,3.72,0,0,0,.22-.67,20.41,20.41,0,0,0-3.4.19l.22-.56c-.63-.36-1.3-.67-1.9-1.07s-1.26-1-1.52-1.19l-2.51,1.42C279.6,586.8,281.28,587.22,282.82,587.44Zm32.42-54-.17.17.6.71.27-.27a2.66,2.66,0,0,0-.78-.52v-3.21L312.61,528C312,530.1,314.21,531.53,315.24,533.43Zm-7.61,34.25c-.5-2-1.23-3.36-1.07-4.58.34-2.49-.79-4.66-1-7a16.22,16.22,0,0,0-1.7-5.32,6.72,6.72,0,0,1-.13-6.3,27.06,27.06,0,0,0,1.55-5c.49-1.92.86-3.86,1.29-5.8-1.83,1.36-3.92,2.83-4.16,4.55-.47,3.26-2.33,5.72-3.47,8.56a5.53,5.53,0,0,0-.06,3.72c1.62,3.94,2.14,8.33,4.78,11.87.25.33.11,1,.19,2-1-.66-1.75-.89-2.09-1.39a18.76,18.76,0,0,1-3-4.81c-.5-1.55-1.76-2.16-2.58-3.26-1-1.31-1-1.3-2.73-1.93,0,.87-.36,2,.06,2.55,2.84,3.79,5.18,8,9.19,10.85Zm20.07-16c1.09-3.63.24-6.56,1.14-9.5.8-2.63.23-5.71,1.77-8.17-.59-1.37-1.16-2.68-2-4.6l-2.73,8-1.76-4.16.79-2.45-3.42,1.74c-.22-.6-.39-1.1-.58-1.65l-1.41.21c0,.64-.19,1.29,0,1.73a15.52,15.52,0,0,1,1.75,6.66c.07,2.49.72,5,.78,7.45.13,5.3,0,10.61,0,16.45l4.3-1.47c0-2,.6-4.07-.15-5.35-1-1.74-.37-3.33-.67-5a41.27,41.27,0,0,1-.84-5.27c-.14-2.59-.05-5.2,0-7.8,0-.23.27-.46.45-.74l1.27.26c0,2.25-.15,4.41,0,6.54S327.19,548.78,327.7,551.64Zm-33.77,24.45a10.16,10.16,0,0,0,1.51,1.47c1.55,1.07,3.57,1.79,5.12,1,3.24-1.66,6.62-1.7,10-1.62.47-1.8.86-3.34,1.28-4.93-2.15-.42-4.1-1.34-5.86-1-2.92.49-5.8,1.29-8.74,1.85-4.37.84-7.11.91-10.83-.79a31.86,31.86,0,0,1-4.32-2.09,44.23,44.23,0,0,1-4-3.39c-.89,2.51.75,3.14,2.47,3.86v3.77l2.83,1.65c2,.62,3.67-.28,5.34,1C290.17,577.88,291.78,575.91,293.93,576.09Zm-5.1-22.54-3.21,3.61c.05.39.19,1.42.39,2.89l3.31-2.43.52.36-.46,1.11c.55,1.32,1.17,2.76,2.17,5.12l3.48,2.91-1.44,1.36L285,565.34a24.94,24.94,0,0,1-1-5.14c0-1.86-2.65-2.44-1.81-4.48-1.08-1.26-1.4-3.2-3.33-3.85-.21,4.88-.21,4.88,3.57,13.43A25.65,25.65,0,0,0,294,569.37c1.19.14,2.82-1.21,3.65.86,1.19-1.34,3.56-.9,3.67-3.41L295,564.19c-1.7-1.17-2.95-3.37-3.84-5.68a35.23,35.23,0,0,1-2-9.13c-.16-1.7-.6-3.59.67-5.26h-2c.15,1.32.84,3,.31,3.6C286.16,550,288.44,551.22,288.83,553.55Zm41.66,12.23c-7-1.17-11.73,3.24-17.17,6.23a12.08,12.08,0,0,0,9.34,4.06c.53-1.91,1-3.46,1.45-5.17h7.5c.4-1,.79-2,1.13-2.86Zm-54.88-22.72-.57.55,5.72,6.47,1.56-1.49c-.33-.69-.95-1.4-1-2.12-.08-3-1.61-5.37-2.71-7.94-.31-.73-1.26-1.18-2.23-2C276.11,539,275.86,541.05,275.61,543.06Zm16.53-11.55c-1.2,3.62.18,6.63.79,9.67a15.7,15.7,0,0,0,1.8,4.38c.29.53,1.2.72,2.11,1.22v-5.93C295.08,537.35,293.68,534.56,292.14,531.51ZM335,538.8,331.6,540c.07,1.24.15,2.54.23,4,1.89-.83,1.28-3.64,3.77-3.52l1.27,1.56-2.11,3.85,1-.41c.18.68.37,1.37.59,2.17,2.2-3.57,1-7,1.37-10-1.18-1.87-2-3.42-1.77-5.35,0-.13-.32-.3-.58-.53-.76,1-1.5,1.91-2.38,3l2,.74Zm-64.78,7.08c1.23,4,2.42,7.76,3.75,12l1.29,1.3v3.55l3,1.22c-2.12-6.49-5.13-12.09-6.15-18.32-.05-.3-.55-.53-.84-.79Zm46.35-22.63L315,524.44l7.19,3.37,2.94-3.22a27.58,27.58,0,0,0-4.22-1.29A31.67,31.67,0,0,0,316.6,523.25Zm-51.76,31.91c1,.51,1.72.91,2.45,1.22s.73,1.56,1.79,1.17c.48-3.42-.57-6.34-2.14-9.33A9.45,9.45,0,0,0,264.84,555.16Zm7.3,13.8H275c-.29-1.1-.55-2.09-.82-3.08l-.36.37-2.58-3.3-2.39.34C270.09,565.44,270,567.93,272.14,569Zm3.62-40.52c.87,1.19,6.5,4,9.61,5,.05-3.1-3.08-3.36-4.39-5Zm36.36,30.14-.62.61c1,2.41,2.05,4.83,3.08,7.24a5,5,0,0,0,.61-2.25A14.14,14.14,0,0,1,316,562c-.47-.83-.93-1.63-1.26-2.23Zm-1.69-12.78c1.41-3.61.82-6.2-.87-6.2l-1,1.67.49.55-1.82.86.35,1.24,1.9-1.13Zm-26.05-18.32c1.27-.26,2.73.47,4.31-.75a19.91,19.91,0,0,0-5-2.78l-1.55,1.3Zm-13.49,8.89c.49.84.92,1.56,1.51,2.58.47-2.25.86-4.14,1.29-6.21h-1.6Zm38.45,19.55c1.22-1.33.07-2.93,1.13-4.4.82-1.12.47-1.73-.26-3.94C308.41,550.22,309.27,553.13,309.34,555.92Zm5.23-20.11-3-1.45c.32,1.47-.51,2.88,1,3.92.18.13.39.22.87.49ZM289,532.66c-2.17,2.22-2.16,3.07,0,5.1Zm6.28,53.07-1.36,2.64c1.15-.54,1.66-.82,2.19-1s1.26-.35,1.85-.62c.28-.13.44-.51.84-1Zm23.51-30.66c.58-2.51,1-5,0-7.51Zm-33.28-11-.71,0c0,2.12,0,4.23,0,6.35,0,.1.37.19.69.35Zm21.7-18.18c-.58,1.9-1,3.86,0,5.77Zm-26.83,7.88-2,1.58,2,1.93ZM315.88,543l-1.11,2.09c.16.37.42,1,.69,1.56l.42-.32Zm-31.25-5-.77.08.33,2.27.44-.05Zm22.06,8.54h.44v-1.73h-.44Zm12.81,17.94v-.29h-.87v.29Zm13.3-10.12h.29v-.87h-.29Zm-46.57-20h-.29v.87h.29Zm29.51,7h-.29v.86h.29Z"/><path d="M388.06,442.39c0,1.53.14,3.09-.87,4.4-1.14,1.47-.93,3.14-.77,5,2.51-.82,2.58-4,5.18-5.1l-2.53,7.61,2.69,2.31,1.48-3c-.42,4.6-.74,8.24-1.08,12l-.87.87c-.18-.06-.48-.07-.56-.21-1.79-2.86-5.09-4.8-5.27-8.64a15.22,15.22,0,0,1-3.89-7.48,20.4,20.4,0,0,0-6-10.3L378.2,437c.45-1.82.82-3.27,1.25-5l-1.82-3.55v-4.56l-2.81,1.36c.39,1.78,1,3.37,1,4.95s-.77,3-1.41,5.21c-2.15-3.32-3-6.16-2.89-9.36l-1.63-.34c.54-2.37-1.6-4.15-1.71-6.4-.13-2.41-1.09-4.46-1.92-6.92l6.66-6.13c.92,3.05-.67,4.6-2.23,6.15,0,1,0,2,.05,3.08l-.12-.14-.71.61.27.27a5.13,5.13,0,0,0,.56-.74c1.81-.36,1.61-2.42,2.79-3.36a46,46,0,0,0,3.46-3.41l-1.09-3c.3-.44.6-.89.73-1.07-.28-1.43-1-2.79-.64-3.76,1.39-3.87.4-8.57,4-11.62-.59-1.55-1.18-3.07-1.93-5h3c.33,1.61-.61,3.32.77,4.93.45.54.15,2-.47,3.16-1.33,2.48-2.61,5.15-1.8,8.6l4.22-5.48c-.31,1.87-.46,2.72-.58,3.58-.18,1.35-.34,2.71-.52,4.16,2.2-.38,1.58-2.15,2.28-3.42l2.8,1.2c.16-1.38.29-2.56.43-3.74h.42l.61,3,2.24-1.55v-5.37c.71-.66,1.44-1.35,2.23-2.07l1.28,1.22c-.2,2.59.59,5.44-1.66,7.83-.43.46-.06,1.67-.06,2.27-3.23,5-8.24,6-13.9,6.91-2,2.65-4.32,5.59-6.51,8.62a8.64,8.64,0,0,0-.61,2.66l3.79-2.35-2.89,6.25.41.25,9.19-7.88c-.12,2.95-2.5,5.22-1.38,8,1.91.1,2.71-3.19,5-1.25-.69,3.08-5.48,3.06-5.29,7.19l3.31-.71c-.46,2-2.53,3.51-1.21,5.92l4.05-3.68.57.46c-.69,1.13-1.28,2.34-2.08,3.4-1.78,2.35-3.22,4.77-3,7.9.05.6-.55,1.23-.66,1.87a16.26,16.26,0,0,0,0,2.44,3.24,3.24,0,0,0,2.57-2.22C385.45,444.87,386,443,388.06,442.39ZM390,458.75l.75-.1-.34-1.41-.41.07Z"/><path d="M360.31,707.9a28.48,28.48,0,0,1,3.15.56c1.15-6,4.32-10.45,11.36-11.07.93-2.18,2.35-4.32,2.69-6.62s-.46-4.57-.75-6.82l4.11-.82,1.75.75a3.46,3.46,0,0,1,.23.75,9.86,9.86,0,0,1-.83,4.42c-2,5.81-3.91,11.66-6.19,17.43l2.56,1.59c.66,3.92-1.5,6.09-4.72,7.6l-2.26-2.21v-2.09l-4,2.53h-3.68c-.34-1.21-.73-2.61-1.08-3.88l-7.92,4.37-1-2.28c1.37-.87-.13-3.37,1.68-5.12,1.31-1.26,1.57-3.61,2.34-5.56l-1.25-.57-8.72,13h-2.09l-.25-3.34-5.25,4.31L338,713.79c-.16-.69-.37-1.56-.68-2.9-1.2,1.06-2,1.85-2.85,2.5a21.26,21.26,0,0,1-2.29,1.37l-1.95-1a1.31,1.31,0,0,1-.26-.58c-.14-6.31,3.16-10.59,8.16-13.88,2.3.09,1.94-2.48,3.5-3.43h2.72l1.45,1.4c-1.3,1.1-.76,3-2.05,4.26-1.5,1.44-1.84,3.29-1.57,5.57,2.08-.37,3.36.42,3.64,2.57,3.05-2,2.23-6.22,5.26-8.49l-3.85-.36c.74-3,2.1-5,5.53-5.08l1.94,2.7c2.55-.77,4.69-3.54,7.62-.21-.65,3-1.36,6.34-2,9.62,0,.08,0,0-.1,0l-.71.61.27.27A2.39,2.39,0,0,0,360.31,707.9Zm7.53,1a2.74,2.74,0,0,0,2.91-2.07,11.11,11.11,0,0,1,2-3c.9-1,.68-1.89,0-3.31l-3.5,3.31C368.7,705.67,368.33,707.06,367.84,708.91Zm-33.46.61.82.39c.72-1.64,2.68-2.51,2.49-4.69,0-.3-.43-.56-.35-.47-1.15.76-2.19,1.44-3,2Z"/><path d="M429.29,365.93c-1.36,3.84-5.84,1.8-8,4.78l-.26-2.58,3.82-1.75c-2.09-.66-3.92-.16-5.36-.4l-5.89,5.88c-2.61,5.8-6.86,11.24-8.94,17.83l-.95-.32a8.52,8.52,0,0,1,0-2c.64-2.47,1.36-4.92,2.08-7.38.38-1.28,1.2-2.34,1.49-3.74a8,8,0,0,1,2.53-3.67c1.85-1.72,3.1-4.16,5.74-5,.49-2.74,3.84-2.63,4.74-4.94A37.69,37.69,0,0,1,434,364.13c1.76.51,4.07-.36,6-1s3.31-1.84,5.46-3.09c3.47-.61,7.34.34,11.18,1.65,2.19.75,3.7,2.71,6.1,3.15.53.1.81,1.55,1.15,2.26-1.74,1.77-3-.59-4.37-.1-.68,1.72.78,2.16,1.48,2.87a33.27,33.27,0,0,1,7.31,10.87,22.18,22.18,0,0,0,2.24,4.29c2.5,3.68,3.72,8.1,6.65,11.57.47.56.31,1.6.67,2.31,1.69,3.33,3.06,6.9,6.51,8.8V410c-.24,0-.52.05-.63-.06-2.89-2.82-5.56-5.78-7.14-9.61-.36-.86-1.41-1.42-2.14-2.12-1.85,1.94,1.25,3.76.13,6.08-1.45-1.45-2.88-2.74-4.13-4.18a7.57,7.57,0,0,1-1.58-2.8c-1.38-4.95-1.85-6-4.59-9.38-.18-.23-.54-.39-.58-.62-.71-4.11-4.18-6.62-5.85-10.17a7,7,0,0,1-.31-.87c-1.21-1-2.3-1.84-3.31-2.77a13.7,13.7,0,0,0-4.74-3.26c-2.63-.92-4.79-2.92-7.52-3.83-1.27-.43-2.43-.75-3.52.06-1.37,1-2.31-.05-3.39-.48C433.18,366.86,433.18,366.86,429.29,365.93Zm38.54,19.74a5.31,5.31,0,0,0,2.48,4.42c-.21-1.71-.73-3.25-2.64-3.73,1-2.95-.78-4.85-1.62-6.95s-3.15-3-3.58-5.49c-2.34.52-2-2.33-3.79-3s-2.67-2.71-4.55-3.58a30.53,30.53,0,0,1-4.52-3.14l-2.8.39c3.38,2.69,6.27,5.33,9.5,7.44a19.35,19.35,0,0,1,6.43,6.85A34.88,34.88,0,0,0,467.83,385.67Zm4.78,10.1c-.28,1.31-.28,1.31,1.83,1.15Zm-1.88-2.85h.44v-1.74h-.44Zm.65,1.16v.29h.87v-.29Z"/><path d="M467.45,372.33c2.09,1.62,4,2.51,5,4,1.35,2.06,3.42,2.85,5.19,4.19s3.46,3.47,5.54,4.46,3.33,3.13,5.84,3.73c2,.47,3.64,2.28,5.54,3.3s4.22,1.75,6.14,2.93c2.91,1.78,5.61,3.89,8.46,5.76,5,3.27,8.71,7.83,12.72,12.05,2,2.08,2.78,5.2,4.43,7.64s2.23,5.45,3.21,8.22a9.29,9.29,0,0,1,0,2.67c-2.6-1.66-3.44-4.07-4.24-6.32a5.46,5.46,0,0,0-1.7-2.6c-1.34-1.18-2.81-2.48-2.84-4.39-1.17-1.67-2.31-3.23-3.37-4.84s-2.67-2.65-3.61-4.47-2.79-2.92-4.39-4.17a52.26,52.26,0,0,0-5.1-3.37,8,8,0,0,0-2.19-.55,15.41,15.41,0,0,0-7.52-4.29c-2.42-.58-4.61-2.09-6.92-3.14-1.12-.51-2.2-.76-2.51-2.39a1.87,1.87,0,0,0-2.71-1.2c-2.08-1.71-3.5-4.18-7-4.55a31.94,31.94,0,0,0,2,4.64c1.7,2.61,2.72,5.73,5.06,7.85a46.86,46.86,0,0,0,8.52,6.6c4,2.21,7.64,5,11.73,7.2,3.83,2,7,5.31,9.87,8.62,1.29,1.46,2.49,3,3.67,4.55.19.26.08.76.14,1.49a20.69,20.69,0,0,1-2.82-1.64c-3.88-3.23-7.47-6.87-11.63-9.69s-8.2-6.36-12.88-8.61a5.6,5.6,0,0,1-3.32-3.49l-2.2-.12c-1.6-1.94-3.4-4.25-5.35-6.43-.65-.72-.56-1.56-.89-2.24-2.62-5.42-4.24-11.32-7.91-16.25C468.57,376.24,468.29,374.53,467.45,372.33Z"/><path d="M332.55,692.34l1.09,2.93-4,1.44c-2,2-2.21,4.53-3.14,6.74s-1.45,4.34-2.09,6.31l2,2.12v2H317.1c-.53-1.66-.2-3.17,1.58-3.2s2.24-1.61,3.42-2.15v-2.74l2.34-6c-2.53,1.45-4.45,2-5,4.31-.14.6-1,1-1.47,1.55-1.83,1.94-4,3.58-5.25,6-.36.71-1.16,1.18-2,2L309,710.6c.6-1.34,1.23-2.67,1.77-4a1.55,1.55,0,0,0,0-1.27c-1.31-1.54-.89-3,0-4.52.17-.3,0-.81-.07-1.27-2.69,2.14-2.73,2.2-3.37,5.49a5.54,5.54,0,0,1-2.46,3.25c-.89,2.38,1.07,3,2.67,3.68-.81,2.15-2.59,2.32-3.44,2.81l-7-1c-.05-.76-.11-1.82-.16-2.74a7.7,7.7,0,0,0,.77-.78c.79-1.15,2.68.15,3.29-1.52a17,17,0,0,1,1.53-3.26c1.25-2,2.62-3.83,4-5.78,0-1.1,0-2.26,0-3.41-.92-1-2.39-1.8-1.51-3.75h9.32V705c3.16-1.61,4.9-4,6.75-6a53.78,53.78,0,0,0,4.46-6.58Z"/><path d="M421,697c.21.21.83.79,1.46,1.39h1.91v3.22a11.78,11.78,0,0,0-3.42,5.1,7.73,7.73,0,0,1-4.5,4.56c-.73.32-1.45.7-2,1-.67,1.48-.44,2.64.7,3.19,3.31,1.62,5.09,4.8,7.88,6.95-.95,2.63-.58,5.71-4.35,6.18s-7.66-.37-11.92.88l-3.7-1.8c-3.64-5.17,1.92-9.58,8.25-9.35,1.09-2.1-2.38-4.44.17-6.48-1.71-2-.34-4.42-.92-6.59,2-2,1.29-5.58,4.23-6.78C416.61,697.71,418.2,695.94,421,697ZM406.1,725.76c2.35,1.31,4.32-.92,6.19.43,1.8-1.45,4.07-.52,6.09-1.07V723l-3.61-2.7c-3.78-1-6.24,1.82-9.62,2.83Z"/><path d="M523.49,396c-.32,3.56,3.65,5.46,3.4,9.4-.82-.39-1.45-.48-1.66-.82-1.81-2.86-3.18-6.08-5.4-8.55-2.06-2.3-5.1-3.7-7.52-5.72-1.71-1.43-4-1.57-5.64-3.22a25.77,25.77,0,0,0-4.05-2.82c-6.89-.69-13.85-3.34-21.6-4.77-1.88-2.75-6.41-3.82-7.76-8,5,4.3,11.3,5.36,17.13,7.53,1,.38,2.3.06,3.45,0a5,5,0,0,1,3.56.86c1.69,1.39,3.76.74,5.68.9C518.37,388.65,515.91,388.86,523.49,396Z"/><path d="M454.61,714.66c-1-1.72-1.73-2.88-2.38-4,3.7-7.73,7.87-12,14.31-15.68,2,1,1.19,2.9,1.38,4.51a10.25,10.25,0,0,0-2.67,6.18l3.06,1.94c-1.58,1.34-.76,3.64-2.6,4.68-1.26.72-2.56,1.38-3.93,2.12-.78-1.21-1.35-2.09-1.83-2.81Zm5.41-8.22-2-1.31-1.25,2.54.81.81Zm5.29,2.1v-.29h-.87v.29Z"/><path d="M405,695.84h1.71l1.41,1.41-3.53,7.1V709l2.16-1.83.95,1c-.23,1-.12,2.42-.73,2.9-1.87,1.46-3.54,3.68-6.63,2.9-.11-.74-.22-1.53-.37-2.54-2.36.25-3,2.58-4.73,3.53h-2.46c-.14-.24-.37-.46-.4-.71-1-6.17,2.73-10.13,7-13.45C401.38,699.17,403.11,697.36,405,695.84Zm-8.14,14c3-.57,2.65-3.51,4.12-5,.32-.32-.16-1.42-.36-2.8C398.2,704.54,396.74,706.68,396.9,709.85Z"/><path d="M446,696.68c.47.71,1,1.5,1.54,2.37a1.48,1.48,0,0,0,.42-.17c.9-.59,1.81-1.19,2.69-1.82,1.39-1,2.34-.26,3.25.75.76,1.92-.36,3.4-1.29,5.17l-3.33-1.21A21.27,21.27,0,0,0,448,704c-1.19,2.81-2.17,5.72-3.56,8.43-.54,1-1.94,1.66-3.09,2.58-.67-1.09-1.23-2-1.72-2.81.86-2.71,1.68-5.32,2.55-8.08-1.77-.45-2.25-1.82-2.76-2.87l4.83-4.61Z"/><path d="M433.07,697.49c3.18.23,3.7,2.62,5.53,4.09-.28,2.68-.59,5.57-.88,8.38L433.38,714h-3.89l-2.6-1.53c-.41-.41-.55-.5-.6-.62a1,1,0,0,1,0-.42,27.16,27.16,0,0,1,.06-4.33c.17-1,1.16-1.89.83-3.11,2-.83,1.19-3.41,2.77-4.49C431,698.78,432.16,698.08,433.07,697.49Zm1.66,2.63-4,3.78c-.44,2.61-.82,4.88-1.16,6.88l1.45,1.53C434.36,709.28,435.26,705.47,434.73,700.12Z"/><path d="M385.06,697.36l1.87,2.95,4.9-3.06,1.6,1.78-1.77,3.44c-2.8.12-4.21,1.68-4.85,4.48a18.53,18.53,0,0,1-4.08,7.69c-1.57.83-2.49,0-3.59-1.34l3.91-9.21-2.92-1.91C381.1,700.23,382.21,698.35,385.06,697.36Z"/><path d="M401.63,314.62a6.61,6.61,0,0,1,.31,1.19c0,9.67,0,19.34,0,29.1l-2.59,1.71c.59-4-1.95-7.35-.58-10.73,1.46-3.58-.36-7.28,1.07-10.82C401.16,321.85,399.08,318,401.63,314.62Z"/><path d="M397.61,433.71a6,6,0,0,0,1.73-4.5c0-1,0-1.95,0-3.08l2.6-.43v-2.4c2.65,4.45,2.5,6.33,1.95,10.84-.32,2.54-2.16,4.44-2,7,0,.14-.68.33-1.2.57a3.38,3.38,0,0,1-.06-3.57,4.1,4.1,0,0,0,.2-3.53c-1.79.64-1.26,3.61-4.17,3.42C397,436.48,397.3,435.1,397.61,433.71Z"/><path d="M372,396.31l-2.31,3.87c.3.3.46.51.49.49.92-.52,1.82-1.07,2.73-1.61l1,1-7,10.1c-1.48-1.61-1.48-1.61-.59-4l-1.67-.94v-4.1C366.71,399.33,368.26,396.61,372,396.31Z"/><path d="M449.62,374.14c.52-.16.88-.39,1-.29a29.54,29.54,0,0,1,4.91,3.76,70.14,70.14,0,0,1,6.24,8.21,21,21,0,0,1,2.32,5.51,28.4,28.4,0,0,0,2.75,6.23,3.27,3.27,0,0,1,.19,1.57l-2.61-2.62A65.17,65.17,0,0,0,449.62,374.14Z"/><path d="M477.46,709.15v4.18a19.24,19.24,0,0,1-1.94,1.32,30.26,30.26,0,0,1-2.88,1.28c-.41-.77-.82-1.56-1.27-2.33s-1-1.6-1.59-2.55l3.94-5.25Z"/><path d="M411.82,576.7c-.58.83-.88,1.28-1.2,1.73l1,2.49c-.54.17-.84.39-1,.32-2.36-.9-4.3-2.87-7.13-2.65-.46,0-1-.79-1.64-1.34,1.92-.72,3.46-.39,5.26,1.28-.87-4-4.32-3.08-6-4.73l.06-.84c.23-.13.64-.41.68-.36,1.59,1.74,4.23-.08,5.78,1.72C409.67,573.79,410.36,575.58,411.82,576.7Z"/><path d="M365.74,392.21l6.76-5.53c.84.77,1.74,1.59,2.86,2.59l-1.53,1.86-1.27-.87c-2.23.43-2.16,2.79-3.89,3.64-1.39.68-2.29,2.34-3.95,3.25Z"/><path d="M397.49,433.74c-1,.43-1.94,1.5-3.53.3l1.91-2.78a33.56,33.56,0,0,0,0-4,36.92,36.92,0,0,0-1.18-4.49l2.83,1.47Z"/><path d="M429.52,287l-11.4,9.05c-.53-2.81-.41-3.41,1.27-3.77a5.21,5.21,0,0,0,2.2-1c2.08-1.5,4.25-2.87,6.42-4.26C428.21,286.92,428.57,287,429.52,287Z"/><path d="M401.08,309.82l-2-1.66a12.71,12.71,0,0,0,1.07-1.73c.15-.37.19-1.12,0-1.24-1.6-1,.84-2.35-.41-3.47s0-2.24.52-3.51c-2.45-1.94.22-3.83.31-5.86.77,2.82.39,5.72.46,8.57S401.08,306.6,401.08,309.82Z"/><path d="M383.61,530.32c-1.44,3-1.8,6.15-2.8,9.2h-1.45C379.47,535.77,380.4,532.55,383.61,530.32Z"/><path d="M384.82,536.08c-.45,2.34-.89,4.59-1.32,6.82-2.15.81-1.26-1.71-2.71-2.14C383.55,540.19,382,536.67,384.82,536.08Z"/><path d="M408.58,395.45h-2.15v-3.13l2.89-1.23C410.5,393,409,394.06,408.58,395.45Z"/><path d="M403.28,563.78,400,565l-2.62-2.62,4.24-.23-.44.6Z"/><path d="M392.65,428.43l1.59.29c-.39,1.63-.78,3.24-1.19,4.92H391.4C391.82,431.87,392.21,430.26,392.65,428.43Z"/><path d="M356.82,444.84v.94l-5,4.5-.24-2.17Z"/><path d="M520.39,449.28c.66,1.67,1.28,3.29,2,5-.93,1-1.7-.17-2.07-.88a21.78,21.78,0,0,1-1.19-3.9Z"/><path d="M442.16,369.56H445l2.41,2.53a6.42,6.42,0,0,1-2,0c-1.23-.55-2.38-1.26-3.57-1.91Z"/><path d="M403.61,372.4c.3,2.92-1,4.67-2.15,6.48A14.25,14.25,0,0,1,403.61,372.4Z"/><path d="M400.07,266.35v4.9C399,269.67,399.53,268,400.07,266.35Z"/><path d="M530.62,410.76c.76,1,1.25,1.58,1.94,2.47l-1.94.75Z"/><path d="M400.06,280.22v4.13c-.32-.16-.69-.25-.69-.36,0-1.25,0-2.5,0-3.74Z"/><path d="M528,407.75h1.38v2.56Z"/><path d="M386,413.56l-.77-2.14C386.15,411.2,386.15,411.2,386,413.56Z"/><path d="M452.36,385.23V383.8l1.69,1.12Z"/><ellipse cx="520.42" cy="691.05" rx="0.31" ry="1.84"/><path d="M383.75,521.18l-1.66.14-.08-.56,1.7-.33Z"/><path d="M381.27,372.55c-.32,1.1-.47,1.62-.61,2.14a6.77,6.77,0,0,1-.38-1.21C380.26,373.35,380.58,373.17,381.27,372.55Z"/><path d="M428.83,286.36l1.66-.14.08.56-1.7.33Z"/><path d="M480.2,656.05h1.44l.07.41-1.41.34Z"/><ellipse cx="432.76" cy="510.96" rx="0.31" ry="1.23"/><ellipse cx="260.04" cy="645.05" rx="0.2" ry="0.61"/><path d="M397.53,458.11l-.71-.61.28-.27.6.71Z"/><path d="M407.08,437.28l-.71-.61.27-.27.61.71Z"/><path d="M371.48,396.31l.61-.71.27.28-.71.6Z"/><ellipse cx="399.78" cy="288.33" rx="0.61" ry="0.2"/><path d="M388,442.31l.61-.71.27.28-.71.6Z"/><path d="M384.5,536.05l.61-.71.27.27-.71.61Z"/><path d="M333.3,209.88l-.7-.61.27-.27.6.71Z"/><path d="M334.25,210.65l-.87-.86Z"/><path d="M438.48,354.64l.71.6-.27.28-.61-.71Z"/><path d="M410.55,419.05l-.71-.61.27-.27.61.71Z"/><ellipse cx="378.95" cy="523.54" rx="0.2" ry="0.61"/><path d="M381,524.07l-.71-.61.28-.27.6.71Z"/><path d="M381.2,523.89l.71.6-.28.28-.6-.71Z"/><path d="M457.5,230.62l-.87.86Z"/><ellipse cx="523.89" cy="687.58" rx="0.2" ry="0.61"/><path d="M456.72,231.56l-.6.71-.28-.27.71-.61Z"/><path d="M380.34,374.77l-.6.71-.28-.27.71-.61Z"/><ellipse cx="376.35" cy="483.62" rx="0.2" ry="0.61"/><path d="M401.87,423.39l-.71-.61.28-.27.6.71Z"/><path d="M401,454.63l-.71-.6.28-.27.6.7Z"/><ellipse cx="381.55" cy="371.66" rx="0.61" ry="0.2"/><ellipse cx="362.46" cy="657.21" rx="0.61" ry="0.2"/><path d="M357.69,444.13l-.87.87Z"/><path d="M283.84,395.24l-1.53.49V393.1l.43-.32Z"/><ellipse cx="299.1" cy="379.47" rx="0.61" ry="0.2"/><path d="M265.86,252.05l1.93-.74,1.53,3.06c-.35.2-.67.44-.72.39C267.82,254,267.06,253.25,265.86,252.05Z"/><path d="M387.19,598.62,389,601l-.17,2.16c-2.56-.79-3.36-2.7-4.2-4.56Z"/><path d="M384.51,598.71l-.71-.6.28-.28.6.71Z"/><path d="M353.88,347.13h3.66c-.41.61-.8,1.17-1.32,1.93Z"/><path d="M417.58,238.29a5.57,5.57,0,0,1-2.62,4.85c-2.74,1.89-3.44,6.14-7.65,6.64v-3.36Z"/><path d="M420.18,124.09v1.26l-1.53.31-.32-1.57Z"/><ellipse cx="483.97" cy="113.01" rx="0.2" ry="0.61"/></svg>